ply
format ascii 1.0
element vertex 1314
property float x
property float y
property float z
property uchar red
property uchar green
property uchar blue
end_header
-2.40231 5.54743 6.10441 0 255 0
-1.37509 6.13961 5.40983 0 255 0
-1.03115 6.27484 5.05783 0 255 0
-0.186546 6.76903 4.26473 0 255 0
0.619449 7.04472 3.71295 0 255 0
0.642255 7.15801 3.77248 0 255 0
-1.73025 6.03626 5.74013 0 255 0
-3.27707 4.87998 6.547 0 255 0
-3.79374 4.38403 6.67572 0 255 0
-4.97992 2.94366 6.59881 0 255 0
-4.0557 3.75621 6.29055 0 255 0
-3.23048 4.24623 5.62808 0 255 0
-2.81993 4.40479 5.26772 0 255 0
-1.75652 4.92237 4.36101 0 255 0
-1.61297 5.14406 4.42866 0 255 0
0.594516 6.85418 3.7945 0 255 0
0.638206 6.95501 3.83323 0 255 0
0.0938032 6.0375 6.23367 0 255 0
-2.00988 -1.18383 2.22525 60 66 85
0.200621 -0.830823 2.28806 185 190 212
0.141029 -0.846884 2.32772 156 156 176
0.184548 -0.834888 2.29918 117 112 138
1.06341 -0.977974 2.46002 166 157 186
-0.453792 -1.66909 3.83211 224 216 162
-1.39854 -1.19217 3.18442 110 124 144
0.153077 -0.775779 2.62196 152 140 170
0.885759 -1.1132 2.62751 144 144 180
0.708859 -0.289187 1.72504 210 206 242
0.197883 -0.821793 2.29239 184 190 213
0.148209 -0.79527 2.63267 180 170 204
0.695654 -0.256794 1.71859 200 193 230
0.724347 -0.254638 1.67107 144 123 152
0.700216 -0.277085 1.71298 196 192 229
0.669611 -1.05295 1.87531 120 119 144
0.198824 -0.840518 2.28046 156 160 184
-1.24628 -1.23194 3.24365 15 12 8
0.145858 -0.837761 2.66785 232 233 254
0.724162 -0.268431 1.68974 160 144 178
0.705723 -0.394333 1.74723 170 167 204
-1.41812 -1.23994 3.15939 82 78 51
-1.39426 -1.22164 3.18061 171 187 214
-1.24716 -1.24127 3.24343 0 0 4
0.693758 -1.09724 1.83861 142 143 170
-1.37642 -1.2871 3.23811 102 99 60
-0.635058 -1.83223 3.68109 191 164 60
0.606198 -0.220857 1.70544 144 127 154
0.698513 -0.358126 1.75667 168 164 202
1.15216 -1.09178 2.48112 114 107 134
0.899552 -0.972634 2.53408 138 132 162
1.14398 -1.10695 2.49718 100 98 134
-1.83334 -1.24323 2.31012 17 12 14
0.197628 -0.832139 2.28974 168 170 194
-0.453381 -1.68105 3.82838 232 220 160
0.729364 -0.261883 1.69397 145 124 154
-1.25143 -1.16509 3.15998 10 4 2
0.693581 -0.27294 1.71623 190 185 222
-0.648324 -1.73931 3.7078 195 172 78
-1.41803 -1.25839 3.14997 106 102 62
-1.37563 -1.30467 3.23599 62 60 41
0.0712596 -0.960931 2.68817 135 136 157
-1.39916 -1.19802 3.18332 152 168 192
0.182455 -0.83744 2.29928 114 113 139
0.870209 -1.07679 2.6388 174 175 210
-2.00847 -1.18049 2.21762 12 16 30
0.70479 -0.293437 1.72107 207 206 242
0.0114911 -0.857389 2.43973 134 138 162
0.58733 -0.235265 1.6846 150 140 172
0.633828 -0.252109 1.68402 140 120 148
-0.0159499 -0.950195 2.58517 106 110 134
-1.01129 -1.28147 3.25669 82 4 2
-1.35747 -1.24832 3.20989 159 176 203
-1.37657 -1.17502 3.18505 152 160 185
0.835757 -0.971384 2.54742 128 120 150
-1.03448 -2.37125 3.65819 194 184 138
0.637679 -0.242555 1.64436 184 171 204
3.25491 1.12808 0.0981124 148 150 175
-0.00300698 -0.885061 2.49844 176 179 214
0.609926 -0.247592 1.38404 128 101 125
0.899052 -1.1386 2.61334 143 142 176
0.516934 -0.878004 1.57295 123 126 152
0.713497 -1.08389 2.67971 170 176 212
1.15204 -0.981827 2.06801 78 63 83
1.87249 0.234702 2.07791 206 198 238
-0.508877 -0.0591449 0.802963 72 118 182
0.579885 -0.368159 1.79039 163 164 206
-1.64414 -1.57832 3.08575 146 162 180
0.908182 -1.10105 2.62635 172 168 203
-0.498116 -0.0636736 0.800772 34 86 154
0.759309 -0.0268296 1.42907 176 176 215
0.579907 -0.371355 1.79268 172 173 214
-1.28218 -1.86537 3.32184 145 132 130
1.00055 -1.04811 2.55589 184 183 220
0.180611 -0.843849 2.29825 114 110 136
-1.28998 -1.86576 3.32426 146 135 131
0.181611 -0.849712 2.29546 114 110 134
-0.252813 -1.73689 3.12989 50 35 20
-0.285021 -1.74263 2.975 115 88 34
-0.319502 -1.69919 3.07799 88 68 40
1.77532 -0.110933 2.48875 139 146 188
-0.303512 -1.70267 2.99498 114 86 34
0.364512 -1.12419 2.63405 132 134 162
0.39185 -0.323059 1.16052 210 214 255
0.495327 -0.257078 1.0872 132 121 164
0.565375 -0.265009 1.26332 134 122 157
-1.59743 -1.61849 3.16523 80 68 58
-0.276447 1.33317 0.776467 50 140 216
-0.399749 1.13479 0.888103 198 198 240
-0.142051 1.35983 0.844381 53 138 222
-0.357799 1.11652 1.03277 89 120 178
-0.295934 1.12583 1.02016 2 83 176
-0.0496946 1.35497 0.983297 18 83 158
0.05027 1.29657 1.07069 79 122 190
-0.416783 1.22704 0.780235 210 212 250
-0.168804 1.34236 0.890421 78 170 252
-0.212453 1.04764 1.20472 59 162 251
-0.22349 1.12683 1.11385 12 110 203
-1.62118 -1.49771 3.1323 150 169 192
0.0373407 1.29487 1.04255 20 83 158
1.54076 0.875658 2.91587 231 242 255
0.703125 -1.13074 1.81999 142 145 179
-0.254226 1.32326 0.856803 5 92 180
-1.57374 -1.69586 3.15311 159 127 94
0.698778 -0.248202 1.55262 178 171 208
-0.129676 0.921443 0.358182 42 102 178
-0.66846 0.0485493 0.371482 65 114 188
0.00973425 1.20486 1.15645 26 96 172
0.885065 -1.07565 2.63295 171 172 206
1.45713 -0.526562 2.21091 175 182 224
1.4646 -0.552822 2.19284 185 192 234
1.17181 -0.958197 2.06958 78 64 86
-0.835847 -2.02219 3.59555 190 167 70
-1.12688 -2.26958 3.47402 104 70 6
-0.246752 -1.76513 3.14675 26 10 1
-0.810493 -2.03488 3.63328 190 172 82
-1.27686 -1.14688 3.13807 93 91 66
0.94937 -0.958419 2.49732 130 126 159
-0.833221 -2.06021 3.63061 202 190 106
-0.672291 -1.50559 3.61543 219 194 99
-0.608941 -1.53977 3.5976 214 191 106
-0.800717 -2.09417 3.64734 200 187 106
-0.640303 -1.64566 3.72726 186 168 84
0.198578 -0.831885 2.29038 168 175 202
-0.845266 -1.99147 3.59867 194 168 64
-0.817984 -1.97292 3.64815 196 180 87
1.10607 -1.14072 2.52064 124 128 169
0.00608422 -0.937323 2.49175 182 190 226
-1.13074 -2.25469 3.47712 112 75 16
1.73319 0.128756 2.17074 213 224 255
1.09969 -1.11704 2.53125 124 128 168
-1.39084 -1.22749 3.18512 196 220 254
-0.849819 -2.17231 3.55966 194 168 62
-0.626779 -1.52063 3.62551 144 116 34
1.09241 -1.09483 2.53597 131 135 176
0.702124 -0.390782 1.74363 169 168 209
0.663315 -1.0094 1.88545 122 128 156
-0.0011574 -0.863426 2.51451 170 177 214
0.130802 -0.813668 2.64375 177 173 214
-0.863361 -1.9115 3.61633 200 172 65
-0.659726 -1.60624 3.58338 224 200 110
-0.468128 -1.67658 3.82842 226 216 150
-1.01184 -1.29186 3.2696 93 6 6
-0.660338 -1.55504 3.58477 222 197 106
0.141213 -0.850661 2.32881 147 151 176
-0.301569 -1.74044 3.06818 36 18 2
0.840647 -1.05571 2.64814 170 175 213
-0.460463 -1.66186 3.83181 229 224 170
0.5889 -0.265269 1.67262 146 139 172
0.949179 -0.959124 2.49736 141 137 170
-0.25392 -1.75338 3.14532 34 17 8
0.128059 -0.860832 2.71495 204 214 253
-0.463993 -1.64934 3.83323 228 222 166
-1.28014 -1.23925 3.26495 51 52 53
-0.862925 -1.88926 3.61569 196 166 56
1.4786 -0.857218 2.18556 98 94 120
-0.409821 -1.56375 3.80001 113 90 38
-0.620857 -1.40566 3.63153 194 168 84
-1.91904 -1.31189 2.41677 175 169 136
-0.60273 -1.54116 3.6239 174 148 67
-0.0636693 1.10504 1.0292 58 154 244
0.951739 -0.968694 2.49474 126 120 154
0.280973 -0.731304 2.63022 165 162 195
0.738343 -1.00686 2.6365 196 203 243
0.949953 -0.961559 2.50143 129 124 158
0.410943 -0.536943 1.5829 88 97 122
1.40741 -0.82761 2.14853 184 189 230
1.5144 0.945911 2.70681 142 147 186
0.4115 -1.20334 2.6192 105 109 133
-1.73362 -1.52482 2.80209 85 89 110
-0.0387578 1.32584 0.812151 115 168 235
-0.495746 -1.56827 3.84552 215 208 150
1.21426 -1.05455 2.34761 129 124 154
-1.05578 -2.43055 3.63024 120 119 112
-0.809067 -2.0442 3.63241 192 172 88
-0.921642 -2.3364 3.62255 191 183 140
1.03899 -1.12155 2.55996 182 184 224
-1.03543 -2.42475 3.65464 158 154 146
1.02849 -1.08999 2.57234 176 178 218
-1.03053 -2.38894 3.66533 174 170 156
0.937369 -1.02176 2.59153 190 194 232
1.03844 -1.11185 2.56476 179 182 221
1.08164 -1.0662 2.4793 152 148 182
-0.959417 -2.29789 3.63927 160 133 32
-0.304516 -1.80453 3.05508 55 38 18
0.201326 -0.84218 2.25175 151 156 184
-1.07542 -1.39215 3.37245 124 61 43
-0.246381 -1.74935 3.15458 24 9 1
-1.34636 -1.20563 3.21528 142 158 186
-1.07499 -1.38881 3.37346 119 46 36
-1.34967 -1.42154 3.37064 140 76 65
-1.41763 -1.63189 3.37507 197 174 160
0.905031 -0.974616 2.53044 124 120 154
-1.02054 -1.26831 3.25365 78 8 2
-0.678526 -1.43785 3.65345 170 145 59
-1.14194 -1.7165 3.40427 218 200 121
-0.262837 -1.79183 3.13294 27 11 4
1.10135 -1.12225 2.52323 126 130 172
-0.300469 -1.74661 3.07107 49 35 18
0.0057826 -0.865825 2.50331 190 196 235
1.10441 -1.13146 2.52327 118 125 168
-0.459094 -1.68988 3.82973 226 219 176
0.140776 -0.910713 2.69472 204 216 254
0.634963 -0.267832 1.68159 130 116 142
-0.458075 -1.62686 3.09062 37 20 11
-0.942253 -2.22648 3.63309 144 132 67
0.419718 -1.08322 2.66767 191 204 244
1.32124 0.23001 1.70493 144 132 162
-0.450593 -1.69414 3.83116 218 208 158
0.0862752 1.26284 1.00809 44 92 162
0.0893926 1.25676 1.016 80 124 192
-0.295049 -1.79557 3.04982 32 17 2
-1.29997 -2.25694 3.46099 200 191 142
-1.29773 -2.23496 3.46714 192 184 144
-0.996504 -2.52482 3.63093 220 208 138
-0.598876 -1.56454 3.6043 199 178 96
-0.674544 -1.39141 3.65667 166 142 58
-0.606268 -1.94466 3.70242 182 174 125
-1.12757 -2.21861 3.4238 98 92 84
-1.12623 -2.20684 3.43087 103 96 91
-1.22535 -1.1187 3.16766 190 182 134
-1.00248 -1.27646 3.26082 82 31 8
-0.434554 -1.73611 3.09468 32 16 4
-0.419499 -1.72861 3.09348 34 14 3
-0.422587 -1.68849 3.8057 102 80 49
-1.91734 -1.29988 2.41159 154 151 114
-1.4911 -1.78368 3.06262 71 70 50
-1.3299 -1.18445 3.20345 8 18 34
-1.33997 -1.30145 3.25331 11 18 28
-1.26815 -1.18876 3.26564 31 36 44
0.924802 -1.12899 2.59127 193 199 238
-0.501955 -1.74964 3.84304 196 190 153
-1.40535 -1.24891 3.2113 66 70 62
-1.50978 -1.42213 3.26425 52 49 34
-1.3189 -1.30177 3.26544 85 86 66
-1.15791 -1.20654 3.23984 182 122 95
-0.291259 -1.9881 3.02714 30 10 0
0.948737 -1.06269 2.57969 195 202 240
-0.467467 -1.70117 3.8335 239 232 186
-1.38511 -0.673022 2.7005 103 106 84
-1.237 -0.734008 2.73763 18 12 6
-1.46115 -1.43721 3.34058 155 145 113
-1.00851 -1.37054 3.28541 82 9 0
-0.209201 -2.15776 3.07728 72 56 22
0.898497 -0.971785 2.52954 136 134 168
-1.43683 -1.31377 3.12417 166 162 126
0.953839 -0.991372 2.49392 125 118 152
-0.651602 -1.55768 3.63522 145 114 27
-1.23735 -0.735828 2.73467 24 18 10
-1.33842 -1.11589 3.12698 46 46 28
-1.29961 -1.09559 3.11767 184 176 125
-1.01759 -1.27889 3.25477 80 5 3
-0.477981 -1.69956 3.8315 232 226 174
-1.29381 -0.651161 2.73787 14 16 28
-1.23528 -0.727147 2.73525 19 14 8
-1.3666 -1.01756 2.84489 172 148 76
-1.09607 -1.52911 3.35206 106 23 25
-0.546698 -1.70208 3.82914 176 169 138
-0.491634 -1.72286 3.82422 231 220 166
-0.40762 -1.58826 3.79297 115 90 44
-1.38832 -1.21458 3.13587 12 18 26
-1.27929 -1.12847 3.25352 38 52 72
-1.07495 -2.64633 3.65874 218 208 158
-0.590265 -1.52659 3.6274 196 170 91
1.00711 -1.10308 2.54609 182 185 224
-0.249127 -1.91926 3.14427 24 10 2
-0.0339409 -0.899809 2.52868 106 114 138
0.734299 -1.04585 2.63092 198 208 245
-1.25533 -0.95621 2.86113 198 184 132
-0.923545 -1.57346 3.32443 212 190 107
-0.88098 0.356012 3.69003 65 46 43
-0.880285 0.356449 3.69614 76 48 29
-1.49113 -1.41143 3.27525 42 42 30
-0.941418 -2.28421 3.63664 142 129 70
-0.657198 -1.57793 3.63112 166 141 50
-1.15751 -1.80638 3.39755 176 165 136
0.868624 -0.971705 2.52988 183 179 214
-1.67757 -1.42553 2.66782 200 180 108
-1.40899 -1.19069 3.14232 92 93 73
-0.598536 -1.53629 3.62403 209 184 106
-1.39105 -0.693774 2.69365 78 82 70
-1.3773 -1.17219 3.12688 31 32 31
-1.00122 -1.33786 3.29128 78 13 4
-0.403847 -1.65759 3.77847 96 71 31
-0.980193 -2.5098 3.63434 154 132 47
-0.48542 -1.80851 3.82831 224 215 164
-1.42829 -1.2857 3.15034 28 30 25
-1.38893 -1.23045 3.18979 190 216 242
-1.28758 -1.19758 3.13963 6 3 5
-1.25725 -1.21325 3.16992 2 1 0
-1.01096 -1.2725 3.26304 85 1 4
-0.601316 -1.43239 3.6187 211 188 109
-1.42338 -1.27051 3.12536 75 74 60
-1.38007 -1.24095 3.22253 191 207 218
-1.25352 -1.18186 3.15043 58 52 32
-0.636525 -1.56409 3.66368 200 182 110
-1.67536 -1.40533 2.6716 200 180 108
-1.41602 -1.22103 3.13702 75 73 60
-1.47105 -0.901925 2.65915 132 113 75
-1.46968 -0.955652 2.63361 80 84 84
-1.45833 -0.865477 2.68202 126 107 58
0.671185 4.35654 1.71967 114 110 120
0.622513 4.10503 1.62183 98 98 113
-0.1304 1.86308 1.0578 16 116 204
0.191989 3.63963 2.01854 24 120 206
0.15765 2.90081 1.68143 70 162 249
0.0518942 1.26414 0.872344 162 220 254
0.103925 2.90732 1.83527 10 107 200
0.00899149 2.39127 1.65895 66 168 254
0.20794 3.25808 1.95285 58 148 234
0.0886882 2.39754 1.5988 12 106 194
0.157713 2.00054 1.28796 113 161 220
0.132334 3.15062 2.00919 70 172 254
-2.15285 -1.68871 2.11973 25 27 38
-1.93017 -1.32305 2.44365 154 154 138
-1.46631 -0.894728 2.6677 194 187 139
-1.39791 -0.41049 2.80208 199 179 114
-1.70373 -1.44842 2.71213 92 88 65
-1.33042 -0.494165 2.73216 9 12 17
-1.05353 -0.435703 2.53664 152 140 94
-1.10198 -0.549065 3.21242 44 41 27
-1.06616 -1.16052 3.22958 113 61 30
-0.760534 -1.46816 2.83115 114 99 95
-0.578775 -1.1402 2.88862 118 104 91
-1.10778 -1.66724 3.39959 104 91 76
-1.14036 -1.88857 3.38448 216 198 142
0.179903 -1.10409 2.49794 102 90 118
0.216912 -1.22977 2.52258 162 156 186
0.167807 -1.41164 2.67008 148 154 184
-0.250075 -1.6179 3.05277 34 16 0
2.55069 -1.0831 1.01487 27 24 40
0.891189 -1.73388 2.54701 176 180 216
2.57891 -1.25642 0.986281 34 32 46
0.974674 -2.37874 2.41001 202 207 246
0.984724 -1.8962 2.46522 195 199 240
2.6351 -1.22055 0.961354 32 30 45
2.62098 -1.0661 1.044 24 22 36
2.62402 -1.08148 1.07859 17 16 29
2.68925 -1.24594 1.00042 16 14 28
2.67033 -1.18053 1.03514 106 104 118
2.66438 -1.10158 1.07165 13 12 26
2.62879 -0.900808 1.12279 105 104 118
2.693 -1.25779 1.03602 118 116 130
2.71542 -1.43698 1.0072 118 117 131
2.55089 -1.09002 1.20118 20 18 32
2.50225 -0.881389 1.28067 64 63 77
0.633694 4.57603 1.9441 121 119 132
0.244167 4.52265 2.40901 23 112 199
0.25359 4.55873 2.4444 68 165 250
0.101149 2.94045 1.6701 32 127 214
-0.170102 1.70119 1.21133 26 109 202
-0.128828 1.13714 0.965555 136 186 251
0.173075 3.39679 2.05674 54 150 242
-1.57912 -1.09113 2.45805 128 124 127
-1.39076 -0.377145 2.8082 204 185 120
-1.31509 -0.331742 2.75275 183 170 114
-1.30881 -0.401885 2.73877 7 10 15
-1.02305 -0.444191 2.40654 126 122 120
0.564485 -0.897365 1.69029 104 111 142
-0.57378 -1.09923 2.896 111 100 94
-1.08048 -1.53243 3.40663 104 90 76
0.225821 -1.07741 2.54937 160 155 186
0.10451 -1.20611 2.67816 72 75 94
0.178045 -1.22688 2.69684 116 119 141
0.348252 -1.25914 2.52255 169 162 191
-0.733308 -1.31717 3.64749 236 226 166
-0.221255 -1.51952 3.17057 24 8 2
2.4144 -0.489689 1.21224 27 24 40
2.60114 -1.08083 1.01075 29 26 42
2.56787 -1.19868 1.04707 12 10 24
2.64916 -1.19122 1.001 18 16 30
2.68858 -1.33488 0.99555 17 16 29
2.64897 -1.07357 1.0624 40 38 52
2.66214 -1.25332 1.04513 112 110 124
2.65675 -1.10872 1.08582 112 110 124
2.59207 -1.25734 1.20414 32 30 46
2.61438 -1.21664 1.21477 30 29 43
0.0833759 2.89771 1.78991 172 212 255
0.278319 4.47379 2.55651 64 163 250
0.185386 2.12749 1.3688 174 219 254
-1.5438 -0.958988 2.47743 126 122 124
-1.32357 -0.310443 2.73328 146 128 81
-1.26125 -0.0989509 2.77522 136 119 59
-1.50262 -0.781016 2.75614 205 187 118
-1.01839 -0.364128 2.40718 100 96 94
-0.834439 -0.685309 2.71378 118 92 72
-1.14893 -1.08109 3.25618 124 62 48
0.567608 -0.81795 1.71327 97 104 132
0.232051 -1.11574 2.15911 128 132 154
0.18224 -1.21661 2.21877 186 190 219
-0.877641 -1.35585 3.33026 216 194 114
0.0714364 -1.34285 2.64924 158 164 195
0.205317 -1.48861 2.48662 160 154 185
0.337765 -1.41909 2.49836 168 162 190
0.308737 -0.625752 2.70607 171 179 220
-0.810476 -1.81089 3.63997 249 238 170
-0.15342 -1.52015 3.12346 50 32 8
0.923077 -1.58364 2.43176 132 130 164
2.54902 -0.873623 1.07886 48 45 60
2.60351 -1.35462 0.997371 24 22 36
2.61715 -1.07811 1.03716 20 18 32
2.61917 -1.10522 1.05493 90 88 102
2.63227 -1.10085 1.07301 17 16 29
2.66206 -1.12215 1.04402 18 16 30
2.72972 -1.29706 0.984195 110 108 124
2.67186 -1.13688 1.05597 40 38 52
2.68407 -1.31209 1.04503 114 112 126
2.68216 -1.22112 1.04718 100 98 112
2.41359 -0.508342 1.37936 54 52 66
2.38698 -0.377593 1.46951 34 32 47
0.680496 2.11728 0.0835187 102 102 116
0.536538 2.26201 0.559934 124 126 141
0.313791 4.62374 2.45995 8 94 184
0.554275 2.32482 0.615401 80 70 81
-0.169599 1.15757 1.00229 104 162 236
-0.128635 1.03696 1.06119 72 172 252
-1.4875 -0.623625 2.81409 92 91 87
-1.37216 -0.247105 2.84874 205 196 148
-1.03637 -0.443325 2.39229 100 96 98
-1.33897 -0.442372 2.74113 193 188 132
-1.55425 -3.21007 1.94771 124 122 134
-0.741165 -2.18077 2.77882 106 98 104
-1.02043 -1.41874 3.2813 78 10 2
0.239165 -0.91955 2.20034 130 134 158
0.12584 -1.24483 2.68107 160 160 195
1.53965 -1.71097 1.97481 150 152 184
2.5366 -0.952662 1.09949 22 20 34
2.59013 -0.758408 1.16204 94 92 106
2.5562 -0.708935 1.21656 80 79 93
0.632135 4.53409 1.91434 126 125 141
0.546201 2.09457 0.401271 88 95 113
0.580897 4.46314 2.00479 125 130 148
0.587382 4.24955 1.87508 72 61 70
-0.0118509 1.66216 1.21963 67 159 245
0.0906444 -0.806528 2.71501 132 136 164
0.147118 -0.820469 2.66775 233 242 255
0.107162 -1.06502 2.68769 114 120 148
0.275335 -1.1576 2.54758 176 174 206
2.55028 -1.06321 1.25543 28 26 42
0.298122 4.77559 2.51171 158 205 254
-1.51838 -0.858936 2.48309 124 124 142
-1.11153 -0.0284979 2.49953 160 158 138
-1.07811 -0.981866 2.34851 122 118 126
0.561279 -0.942743 1.62775 201 212 255
2.55102 -1.15412 0.995537 50 47 62
2.60631 -1.04607 1.12376 80 78 92
2.56509 -1.14432 1.22764 43 40 56
2.29097 -0.335095 2.55699 91 96 124
0.523474 2.18443 0.501112 118 125 142
-1.71935 -1.76734 2.30912 22 27 41
-1.31234 -0.879435 2.34825 188 184 146
-1.27163 -1.92311 2.18617 134 134 150
0.6997 -0.560533 1.45533 146 124 155
0.557767 -0.747519 1.67975 202 212 254
0.163019 -0.834896 2.58911 177 172 210
2.51713 -1.01243 1.03989 43 41 55
2.4606 -0.682403 1.36688 44 42 58
2.04381 -0.99838 1.80885 164 157 198
0.563484 2.18255 0.52945 76 60 68
0.737877 -2.54472 1.04212 158 144 178
1.42979 -0.834341 1.33084 134 110 134
2.62875 -0.853623 1.09985 107 104 120
2.12074 -1.41639 1.70876 162 154 194
-0.133868 -0.632674 0.226868 11 88 166
-0.147699 1.84746 1.05747 62 158 244
0.0520878 1.2723 0.872997 121 176 233
-0.0379883 1.65682 1.26568 50 148 239
-0.117556 1.08288 1.0516 8 109 200
-1.41625 -0.655048 2.67977 162 144 106
-1.24901 -0.0439387 2.80442 102 78 24
-1.30606 -0.606793 2.74593 64 66 76
-1.5354 -1.06985 3.11866 110 108 92
-1.18933 -0.786461 2.88188 192 174 116
-1.42002 -1.00503 3.28952 188 190 170
-1.40057 -1.00511 3.32741 198 202 178
-1.40224 -1.10127 3.34859 168 164 145
-1.11418 -1.18829 3.41823 222 212 162
-0.985114 -1.25821 3.29293 90 36 12
-1.13242 -1.4539 3.47237 134 118 32
0.214813 -0.94191 2.72573 120 124 156
0.447533 -1.13436 2.69367 164 174 208
2.67046 -1.3292 0.951969 31 29 43
-0.0674329 1.72017 1.07838 60 156 242
-1.46782 0.427387 2.57822 50 56 73
-1.24931 -0.0374984 2.80199 108 82 26
-1.52365 -0.792929 2.79333 90 86 74
-1.39219 -0.524457 2.83105 160 146 101
-1.34657 -0.747046 3.31891 38 40 46
-1.4219 -1.09918 3.3259 199 204 176
-1.35484 -0.917622 3.35791 172 168 148
-1.2607 -1.13486 3.40306 184 125 111
-0.965066 -1.14955 3.30137 82 20 3
-1.06824 -1.24455 3.41461 198 192 139
-1.05608 -1.05153 3.47675 154 148 113
0.211608 -0.694928 2.27673 148 158 186
2.6258 -1.1252 1.0542 96 94 108
2.74772 -1.43059 0.959044 8 8 21
2.77752 -1.47049 0.929575 100 98 112
2.73127 -1.48241 0.988079 113 112 126
-0.114495 1.58098 1.25878 62 160 252
-1.48486 0.0538559 2.58688 76 72 57
-1.4289 -0.731195 3.1755 158 160 158
-1.03836 -1.04333 3.41013 193 164 132
-1.04664 -1.32795 3.4164 102 92 84
0.226528 -1.1808 2.6947 155 160 192
-1.43764 -0.75706 3.17214 145 146 147
-1.39542 -0.894269 3.28742 170 172 148
-1.36442 -0.841331 3.30517 10 7 8
-1.42034 -1.10589 3.32598 202 205 174
-1.41007 -1.11682 3.3457 146 143 126
-1.21508 -1.00982 3.27934 84 89 82
-1.1742 -1.5845 3.46043 122 118 112
-0.989428 -1.0343 3.43086 102 94 96
-1.04977 -1.45034 3.40475 220 206 143
-1.16062 -1.61488 3.49024 216 206 161
0.0646838 -1.17971 2.67255 94 95 116
0.272242 -1.23851 2.52698 174 171 202
0.177167 -1.09031 2.70945 148 156 188
0.210412 -1.01828 2.71278 140 147 181
0.224623 -1.23127 2.68524 179 184 220
-1.42038 -0.997126 3.27884 169 171 138
-1.30053 -0.624518 3.32719 12 11 28
-1.39634 -1.00437 3.33245 182 186 160
-0.990391 -1.26138 3.29396 86 10 4
-1.02791 -1.02998 3.42348 186 178 128
-1.01227 -1.29532 3.41435 214 197 124
0.0239695 1.37497 1.23583 39 119 202
-1.55266 -0.826222 2.79133 88 90 113
-1.31004 -0.550823 3.30045 152 154 127
-1.29695 -0.569846 3.32669 12 13 20
-1.12936 -0.85565 3.30324 152 89 78
0.513376 -0.385877 1.75274 196 206 251
-1.78453 -4.15262 3.31236 206 196 156
-1.08215 -1.48342 3.42101 100 98 114
-1.00008 -1.27996 3.41258 225 209 132
1.20627 -0.982368 2.10206 74 66 88
2.85702 -1.73156 0.810197 104 102 117
-0.142356 1.8389 1.02461 46 140 230
-1.49894 -0.624625 2.8193 87 90 118
-1.26202 -0.515726 3.36699 188 185 137
-1.10536 -0.701638 3.33928 174 141 102
-1.1061 -0.736543 3.36351 179 142 102
-1.10737 -1.63052 3.42337 96 96 116
-1.04533 -1.47069 3.40138 219 202 130
2.67499 -1.34138 1.02585 62 60 74
0.135375 1.29253 1.01418 144 178 240
-1.47584 0.250392 2.6558 1 4 20
-1.44642 -0.560488 2.52728 121 122 138
-1.30815 -0.241576 2.56481 3 6 16
-1.06861 -0.376673 2.53003 140 135 118
-1.44942 -1.09604 3.26233 178 180 144
-1.37013 -0.971893 3.34088 206 202 139
-1.20756 -0.990543 3.19278 2 2 6
-1.36042 -1.51937 3.24899 55 60 66
-1.17573 -1.07333 3.34478 172 122 92
-1.16146 -1.23517 3.3795 169 112 91
-1.12713 -1.46218 3.49907 206 196 158
1.22725 -0.991962 2.11256 66 60 78
2.53226 -1.03259 1.03028 32 30 46
2.4292 -0.513766 1.41147 38 36 51
2.07088 -1.01008 1.74917 190 192 231
-0.0984856 1.72608 1.34251 56 154 247
-0.0582196 1.76857 1.40612 68 169 254
0.073762 1.65658 1.20436 14 100 184
-1.58805 0.0687528 2.50736 51 58 73
-1.67075 -0.234589 2.49003 44 48 68
-0.983794 -0.270687 2.43805 128 120 122
-1.28836 -0.493509 2.73692 52 65 82
-0.842518 -0.766321 2.70107 126 102 86
-1.47071 -1.23952 3.28314 20 16 14
-1.10081 -1.26076 3.47194 170 162 124
0.238996 -1.01432 2.17726 130 131 156
0.268439 -1.30497 2.51217 175 170 202
-0.742583 -1.13129 3.64835 136 123 55
-0.806508 -1.77467 3.64168 243 232 174
-0.244763 -1.80691 3.14879 24 11 4
0.968891 -1.44364 2.5426 190 189 226
-0.104004 2.02902 1.14278 25 124 215
0.096374 1.72337 1.12557 19 92 173
0.0246088 1.61583 1.2646 48 144 232
0.136339 1.18131 1.00309 128 150 204
-0.968501 -0.16159 2.44249 89 90 98
-0.814805 -0.862722 2.72337 104 74 52
-0.611547 -1.08207 2.86505 112 102 98
0.24125 -0.90753 2.20145 130 132 157
0.19641 -1.32063 2.67731 128 134 163
-1.43417 -1.0516 3.28421 179 178 165
-1.14887 -1.49369 3.48915 149 146 133
-0.781705 -1.34184 3.64579 140 124 46
0.73405 -1.77634 2.52853 179 185 230
0.201254 -1.66204 2.55559 158 164 204
-0.852652 -1.52255 3.67467 212 202 139
-0.804124 -1.4535 3.64455 148 128 50
-0.00392025 1.80627 1.03664 13 98 189
-1.48463 -0.707451 2.5102 127 124 125
-1.59107 -0.996337 2.77081 86 91 109
-0.836487 -0.675338 2.71157 121 100 86
-1.22075 -1.85937 3.47936 176 172 145
-0.862335 -1.56907 3.67559 202 192 134
0.369483 -1.16902 2.64433 194 208 247
-1.4011 -0.559751 2.50919 32 38 49
-1.20101 -0.430733 2.39558 122 110 61
-1.10831 -0.603866 2.49903 146 142 112
-1.05821 -1.13889 3.41756 190 176 132
1.74772 -1.32964 2.21529 146 156 196
-1.39474 -0.657594 2.72689 152 141 88
-1.33262 -0.637968 2.50023 9 10 20
-1.35432 -0.758822 2.73666 132 133 98
-0.484884 -1.64697 3.81947 225 214 159
0.223808 -0.891154 2.72796 164 174 212
-0.354351 -0.274417 0.418491 36 132 222
-0.281442 -0.284511 0.376617 52 134 220
-2.02851 -1.19801 2.24552 108 115 135
-1.26847 -2.46109 3.36503 132 122 94
-0.147233 1.17779 0.990575 144 191 250
-0.18222 1.12063 0.946183 180 226 254
0.757879 2.30773 0.13848 108 106 114
0.550702 2.195 0.51176 105 94 104
-1.50516 -0.838377 2.50887 122 120 126
-1.51124 -0.762862 2.78613 209 196 137
-0.00345148 -1.28358 2.33952 103 107 134
0.0640408 -1.51226 2.63214 144 147 174
2.52611 -0.744316 1.16818 97 95 109
2.56616 -0.873169 1.17256 116 114 128
0.542683 2.25239 0.514274 88 90 106
0.55206 2.2592 0.556118 110 100 112
0.00654406 1.60848 1.26971 14 113 202
-0.977733 -0.178998 2.43838 88 86 93
0.126696 -1.0346 2.60996 144 140 178
-0.900009 -1.80524 3.68776 182 180 150
-1.04086 -3.85599 3.59329 173 149 72
0.994638 -2.17042 2.40505 190 194 236
0.974611 -2.28112 2.42689 198 200 240
0.975117 1.57629 0.912409 125 130 151
-0.989852 0.415386 2.71917 83 84 100
-1.183 -1.88738 3.38976 170 162 136
-0.745166 -1.14064 3.64846 139 119 45
0.982943 -2.42224 2.27683 166 162 196
2.54839 -0.780253 1.21665 118 116 130
2.60054 -1.16817 1.2314 38 37 51
0.0495198 -0.732865 2.69181 123 130 158
-0.812671 -2.45516 3.64286 188 167 96
2.6756 -1.36013 0.958028 74 72 86
2.61041 -0.928404 1.11959 26 24 38
2.50801 -0.640937 1.25824 106 104 118
2.52132 -0.962766 1.29055 40 38 52
2.56518 -1.03832 1.2667 34 33 47
0.668883 2.29153 0.225826 95 98 115
0.168465 1.59403 1.18226 136 166 224
0.975869 1.58386 0.920072 130 136 160
-1.46965 -0.84398 2.65086 117 96 44
-1.55309 -1.19267 2.62104 120 106 52
-0.0192847 -0.98421 2.5734 148 155 188
-0.918957 -1.5607 3.32263 214 192 110
-0.639388 -1.48114 3.64351 141 110 27
2.04729 -1.74263 1.68737 216 230 255
0.832595 0.980058 1.11244 108 92 110
-0.11104 -0.317238 3.24896 24 11 7
-0.138944 1.44227 1.20899 58 158 251
0.903915 -1.56077 2.43444 183 181 216
2.76269 -1.95948 0.89375 42 38 53
-1.61823 -0.0254254 2.49759 48 54 68
0.968766 1.6565 0.952324 126 128 148
-0.997127 -0.185456 2.58193 140 131 90
0.907157 -1.72697 2.40832 183 181 216
1.59543 -2.18761 1.87843 105 110 142
0.546505 2.28986 0.541878 84 88 102
0.536952 2.45416 0.687293 122 128 144
0.0574313 -0.709896 2.6985 114 120 148
0.741827 -1.22872 2.60224 201 210 250
2.60851 -1.0317 1.12672 110 109 122
0.967083 1.69417 0.982137 124 132 154
2.71322 -1.21917 0.987023 102 100 114
0.991119 1.46133 0.870561 132 144 168
0.334123 0.150966 1.2482 115 122 148
-0.124957 1.08328 1.03778 57 154 246
0.981162 0.567632 0.993226 132 122 140
0.706167 -0.239332 1.58099 150 137 168
-0.398222 -1.65685 3.80662 116 102 65
-0.0872267 1.28933 1.05273 39 121 208
-0.298687 1.27453 0.804932 42 130 218
0.458903 -1.25058 2.55802 178 196 236
-0.106638 1.35129 0.909812 52 136 220
1.81372 0.277939 2.14703 192 184 228
1.60545 0.857264 2.84335 208 220 254
1.15468 -1.00276 2.07931 76 63 86
-0.592308 -1.57585 3.60069 144 120 36
1.5377 0.89721 2.64716 100 98 122
-0.245778 -1.75934 3.14689 36 18 9
-0.627552 -1.4415 3.61776 205 182 100
-0.40865 -1.6415 3.79522 111 94 52
1.12726 -0.883431 2.10476 77 66 86
1.39753 -0.834482 2.13901 190 198 249
0.797645 -1.10514 2.64832 176 186 228
-0.258749 1.36153 0.828165 3 98 194
-0.648539 0.0900164 0.700042 42 120 205
-0.0179177 1.3164 0.974206 72 148 226
-0.618482 0.249097 0.89572 57 150 242
-0.601963 0.161372 0.884389 50 136 230
-0.287305 1.03207 1.23258 24 76 154
-0.541769 -0.060861 0.743109 26 74 148
-0.18027 1.04784 1.23843 8 87 180
-0.147197 1.06454 1.21888 0 76 168
-0.14032 1.08587 1.23217 18 92 178
-1.65313 -1.59194 3.00017 34 38 26
-1.63307 -1.58221 3.05372 138 155 182
-1.63865 -1.60556 3.07175 156 174 197
-1.6176 -1.53241 3.13566 117 138 166
-1.58135 -1.80486 3.08142 90 47 54
1.76899 0.312874 2.18023 214 209 252
-0.316271 1.35604 0.808182 26 86 166
-0.742617 0.210014 0.442874 148 194 242
-0.247148 1.30265 0.846072 60 150 236
-0.728847 0.33344 0.669411 138 170 242
-0.685216 0.0643272 0.531023 170 212 249
-0.645879 0.022305 0.568611 46 94 172
-0.154469 1.26165 1.01644 68 148 239
-0.0984601 1.27181 1.03324 89 182 254
-0.643166 0.149333 0.771366 8 81 168
-0.083044 1.28406 1.06968 95 188 254
-0.0841202 1.26271 1.0915 12 105 193
0.0541936 1.27072 1.09563 10 62 127
-0.139578 1.11677 1.21992 70 171 249
-0.526358 -0.0467516 0.81328 42 88 152
0.624884 -0.131478 1.62979 193 190 226
1.5671 0.894237 2.90141 162 175 215
-0.25784 1.36431 0.797872 64 164 244
-0.207226 1.37594 0.826439 74 171 252
-0.0758825 1.36565 0.88631 140 198 255
-0.0714315 1.36613 0.908716 20 82 158
-0.0816885 1.34112 0.912668 80 174 252
-0.0236975 1.35028 0.935671 138 174 246
-0.112184 1.28802 1.00451 60 150 238
-0.068848 1.31512 1.00258 72 157 239
-0.117562 1.28826 1.05934 73 166 244
-0.058017 1.2566 1.09167 86 178 250
0.120845 1.06396 0.869161 86 182 254
-0.115327 1.10664 1.22286 10 98 188
0.624022 -0.12792 1.63352 185 182 218
-1.65619 -1.59153 3.00313 42 47 34
-1.62237 -1.5274 3.11665 182 204 235
-1.60331 -1.68073 3.11868 64 62 50
-1.58257 -1.63566 3.14849 11 12 8
-1.50364 -1.44906 3.27089 18 20 8
-1.49837 -1.8283 3.21892 112 44 64
1.70816 -0.0951075 2.44882 162 172 215
1.57166 0.888269 2.89522 168 180 224
1.90849 0.216187 2.82414 134 110 134
-0.238295 1.39926 0.74497 134 144 204
-0.209075 1.39105 0.786734 164 210 254
-0.802443 0.282339 0.564169 144 178 233
-0.766789 0.2883 0.521348 73 140 218
-0.768171 0.337364 0.62824 48 132 217
-0.11404 1.37855 0.845195 81 137 202
-0.074927 1.31773 1.00743 62 151 236
-0.645964 0.230607 0.792618 111 154 232
-0.177467 1.24929 1.13336 68 163 238
0.0299777 1.31694 1.05007 96 144 218
-0.545003 -0.000598557 0.860618 26 82 150
-0.494049 -0.12252 0.735687 153 178 240
-1.65525 -1.5752 3.08818 77 86 106
1.82328 -0.147115 2.46121 134 147 194
-0.128765 1.39024 0.821315 182 234 255
-0.136324 1.3881 0.863556 11 82 157
-0.142069 1.26216 1.02497 12 101 196
-0.633141 0.160672 0.813289 60 154 241
-0.28286 1.05187 1.14736 77 172 253
-0.562044 0.19887 1.00612 4 90 182
-1.62718 -1.57632 3.11637 204 237 253
-1.59486 -1.60597 3.12921 2 3 18
-1.5778 -1.80556 3.09257 104 44 60
-1.57218 -1.71581 3.13538 172 152 104
0.140497 -0.804224 2.66301 144 143 188
1.74896 0.332354 2.19934 208 204 246
1.19655 -1.10123 2.37597 94 92 122
1.92961 0.175111 2.83108 203 216 254
-0.289126 1.30589 0.89062 19 89 169
-0.10258 1.34287 0.926384 64 152 235
-0.518466 0.00563723 0.863986 23 83 158
-1.23843 -0.752375 2.77989 114 97 47
0.122217 -0.794825 2.6715 161 160 202
1.58188 0.863139 2.91061 210 224 254
1.8561 0.226624 2.84435 140 106 121
-1.84941 -1.2585 2.30074 4 2 2
-1.42009 -1.24673 3.20393 110 106 68
-1.48969 -1.41881 3.28155 7 7 13
1.512 0.943354 2.69971 100 102 132
-1.27011 -1.61445 3.39745 150 43 58
-1.70708 -1.485 2.68725 198 182 99
-1.37749 -1.17878 3.21396 172 203 247
1.24261 -1.15108 2.33565 87 85 114
-0.256496 1.3228 0.854307 4 96 184
-0.209316 1.30394 0.937887 112 186 252
-0.103754 1.23176 1.1929 36 126 214
-0.231851 1.02255 1.24993 77 137 214
-0.102106 1.15144 1.22228 58 146 236
1.95608 -0.0277104 2.65212 121 96 128
1.83833 0.104041 2.75284 153 132 152
-0.235568 1.37517 0.826831 111 209 254
-0.226348 1.32407 0.874939 19 117 204
-0.0308621 1.35027 0.951358 78 126 197
-0.640739 0.0171373 0.608498 134 188 250
-0.304962 1.10518 1.10868 4 94 182
-0.164233 1.22727 1.07474 52 135 224
-0.111347 1.27344 1.06787 14 102 190
-0.0611058 1.25865 1.09438 87 176 250
-1.64579 -1.52456 3.06277 3 5 12
1.77525 0.321732 2.13507 184 178 219
1.4423 -0.565038 2.8009 98 107 147
-0.219871 1.32069 0.866543 12 110 197
-0.241314 1.32138 0.903659 66 158 240
-0.340959 1.16278 1.00774 82 171 241
-0.666267 0.308956 0.860271 38 126 210
-0.0591658 1.21041 1.16005 77 165 250
-0.2328 1.37145 0.816541 98 195 250
-0.12138 1.32252 0.962687 66 156 239
-0.126144 1.12231 1.23368 10 97 186
0.101129 -1.17379 2.4248 135 140 166
-0.19055 1.35942 0.770785 76 166 231
-0.238996 1.32034 0.897908 58 151 234
0.0805312 -1.159 2.44619 106 110 133
-0.240626 1.04118 1.25435 8 92 184
-1.58886 -1.6078 3.12009 3 8 14
-1.27474 -1.15309 3.13589 61 58 42
-0.931082 -2.37636 3.57693 218 207 132
-0.474779 -1.74598 3.82038 218 210 149
1.83659 -0.155023 2.44857 120 132 176
-1.94031 -1.37131 2.44587 50 53 72
1.83137 -0.153353 2.45061 124 136 180
1.83322 0.238946 2.85333 126 91 106
-0.659301 0.0349954 0.556432 130 176 242
-0.644968 0.0217352 0.567951 23 80 161
-0.285222 1.14329 1.10501 58 155 249
-0.136513 1.22392 1.13296 78 172 254
-0.515934 -0.0788678 0.795614 156 183 242
-0.158741 1.28543 0.990252 86 176 252
-0.644464 0.231091 0.794905 118 166 239
-0.302087 1.09793 1.11815 46 150 237
-0.202652 1.15847 1.1578 16 120 208
-0.504901 -0.0956489 0.772447 157 185 244
-0.727095 0.164332 0.589418 6 84 174
-0.495063 -0.0806755 0.765552 30 81 151
-1.63826 -1.51709 3.10167 160 184 220
1.96419 -0.0296811 2.64691 138 129 172
-0.709839 0.100862 0.493611 165 206 246
-0.0733154 1.36696 0.916456 20 84 168
-0.629807 -0.0038093 0.582972 113 148 224
-1.57758 -1.64234 3.10521 4 4 16
-1.56869 -1.68 3.12635 1 4 3
1.80525 0.263932 2.88673 136 111 129
-0.151253 1.39964 0.835647 160 205 255
-0.687268 0.340315 0.819655 71 128 199
-0.655902 0.294227 0.828803 55 133 214
-0.563396 0.197497 1.01666 14 93 186
-1.56659 -1.70293 3.10956 0 3 6
-0.0736455 1.37015 0.876482 127 180 238
-0.0345978 -0.951816 2.5543 160 170 208
-0.303589 1.27025 0.810141 5 90 181
-0.752222 0.239458 0.521921 34 128 202
-0.0642587 1.36088 0.903354 48 108 183
-0.0804893 1.34733 0.922887 77 166 241
-0.141244 1.29886 0.964088 70 158 245
-0.298059 1.06575 1.00861 75 170 250
-0.660206 0.305441 0.859643 26 100 184
-0.654179 0.251035 0.818941 122 181 250
-0.697611 0.134197 0.783823 58 112 192
-0.110811 1.28058 1.05367 83 175 254
-0.250342 1.11123 1.11187 4 98 192
-0.618064 0.2068 0.894318 2 90 180
-0.180443 1.01292 1.04907 4 98 191
-0.0937175 1.25432 1.13857 58 150 240
-1.31805 -0.998316 2.29761 166 164 116
-0.157462 1.26417 1.08206 70 166 248
-0.0273573 1.23182 0.95545 50 139 224
-0.0227462 1.06895 0.997901 4 104 196
0.0277313 1.12143 1.02551 54 150 237
-1.65089 -1.6794 2.95211 142 145 131
-1.60431 -1.70713 3.12842 95 50 54
-1.57552 -1.642 3.14689 35 38 30
-0.666403 0.0525281 0.609351 70 114 196
-0.663899 0.0632213 0.655941 104 150 232
-0.640195 0.222688 0.780067 128 180 252
-0.150964 1.25755 1.07291 57 152 235
-1.34225 -0.92619 2.34602 165 164 111
-1.66796 -1.61994 2.97738 134 140 127
-1.37897 -0.824382 2.41165 168 165 113
-1.63358 -1.58897 3.02641 4 3 14
-1.60536 -1.70628 3.1331 103 68 82
-1.62913 -1.59446 3.02458 3 2 16
-1.58818 -1.58587 3.12749 8 10 32
-0.0713516 1.30711 0.727857 22 98 186
-0.629344 0.231361 0.84476 1 93 183
-0.437414 -0.248299 0.605465 172 190 246
-1.4929 -1.48642 3.25109 38 36 22
-1.48321 -1.44436 3.27099 16 18 22
-0.680042 0.0476319 0.412421 121 159 216
-0.616203 0.169935 0.678086 100 134 212
-1.60095 -1.59415 3.20237 184 160 110
-1.87846 -1.25943 2.41311 154 143 71
-0.763431 0.275193 0.523352 56 130 210
-0.714096 0.113543 0.547578 135 182 247
1.70508 -0.0325678 2.27398 92 98 140
-0.124158 1.30642 0.819078 74 161 243
-0.140782 1.11977 1.15836 4 104 196
-0.684634 0.0603287 0.532444 144 182 246
-0.606999 0.196605 0.649238 95 140 206
-2.00577 -1.18538 2.20807 46 50 65
-0.042651 1.23748 1.06598 62 156 242
-0.659679 0.29955 0.770022 84 130 198
1.69349 -0.0316006 2.28189 110 116 157
-0.725219 0.373523 0.896992 124 164 236
-0.683839 0.291176 0.834939 95 129 206
1.92354 -0.277935 2.12669 102 108 148
1.70486 -0.0937472 2.45205 133 142 186
-1.30724 -2.3229 3.41919 166 158 102
2.03686 0.843603 2.76435 151 162 208
1.73596 -0.0891194 2.25859 114 120 162
-1.26329 -1.63551 3.39161 140 49 56
-1.38133 -0.445555 2.5406 63 70 86
-0.759415 0.242456 0.477956 165 220 254
-0.313796 1.31639 0.861119 44 144 234
-0.76467 0.271471 0.517733 26 108 193
-0.231691 1.34923 0.836285 8 101 184
-0.414663 1.15709 0.871224 160 164 212
-0.742349 0.325596 0.594352 66 122 202
-0.128289 1.39083 0.845828 164 209 255
-0.675701 0.0772333 0.548963 25 85 160
-0.662229 0.0455592 0.596859 44 92 162
-0.275252 1.16464 1.04246 12 88 172
-0.659288 0.252774 0.814242 160 218 254
-0.677621 0.333481 0.894352 34 122 216
-0.657879 0.161141 0.76788 62 128 218
-0.639339 0.146678 0.767007 2 65 157
-0.642265 0.301776 0.882279 66 154 245
-0.160889 1.22441 1.09571 84 178 250
-0.305707 1.05046 1.17094 46 110 190
-0.0834662 1.07683 1.00796 70 168 250
0.0267047 1.26363 1.09482 58 134 212
-0.11586 1.10806 1.22641 10 76 159
-0.0681852 1.18045 1.23559 47 98 168
-0.598045 0.201127 1.04758 20 102 192
-1.51484 -1.69547 2.99691 104 120 150
-0.20849 1.40141 0.809668 164 202 254
-0.209079 1.34528 0.839511 58 150 238
-0.21452 1.33165 0.874122 90 179 252
-0.167581 1.34916 0.90278 80 165 247
-0.348127 1.12106 1.00888 70 106 170
-0.141946 1.29938 0.958842 68 156 243
-0.256625 1.14225 1.03141 31 122 212
-0.0455015 1.32668 0.97131 49 122 204
-0.65297 0.248302 0.808742 136 190 241
-0.29067 1.0573 1.17726 5 86 170
-0.0706604 1.2502 1.1259 78 166 250
-0.137728 1.18255 1.16323 1 92 183
0.0228102 1.28268 1.0929 35 105 181
-0.143452 1.10734 1.17041 98 197 254
-0.0604854 1.19721 1.16496 20 111 197
-0.587154 0.253108 1.05709 18 94 177
-1.51815 -1.42705 3.28815 34 38 22
1.85152 0.256055 2.8654 120 94 112
-0.248162 1.39913 0.759099 128 140 203
-0.26843 1.28382 0.807613 60 156 241
-0.216185 1.33533 0.880054 90 179 252
-0.128758 1.39142 0.839543 160 209 255
-0.73401 0.363423 0.752527 168 208 250
-0.15722 1.2837 0.992452 85 170 246
-0.261118 1.15801 1.0222 34 104 180
-0.155407 1.26903 1.08811 57 150 232
-0.259288 1.20261 1.27094 34 132 218
-0.0741236 1.16501 1.17071 59 161 244
-0.142054 1.06159 1.20653 6 82 174
-1.33884 -1.20151 3.19268 100 116 142
-1.49935 -1.40899 3.27584 44 40 28
-0.169593 1.34787 0.895463 82 170 242
-0.179672 1.33511 0.913349 6 97 180
-0.272658 1.1835 1.04045 192 234 254
-0.653605 0.244264 0.80266 140 194 240
-0.166897 1.21028 1.0658 7 78 168
-0.0836263 1.26535 1.09113 6 94 182
-0.279864 1.05292 1.14045 91 178 252
-0.204106 1.08724 1.24764 51 147 225
0.827143 0.490436 1.48926 190 192 236
-1.52355 -1.41965 3.29072 48 50 32
-0.179792 1.37183 0.781594 15 92 175
-0.0548962 1.30442 0.981121 56 143 226
0.529113 -0.249713 1.79503 188 192 239
-1.21904 -0.774334 2.7143 4 1 4
0.0322356 -1.04485 2.46274 164 178 220
-0.244381 1.37262 0.822077 62 155 236
-0.14914 1.38576 0.872217 5 80 162
-0.354607 1.17778 0.997799 18 98 172
-1.60404 -1.53826 3.13547 27 40 54
-1.4588 -1.5059 3.22565 28 26 16
0.137397 -0.814702 2.6966 204 212 253
-0.144482 1.38448 0.873785 10 82 164
-0.676403 0.271462 0.797699 105 145 210
0.607284 -0.12541 1.64493 166 162 200
-1.20969 -0.824903 2.72859 127 111 55
-1.63433 -1.47923 3.17867 34 45 52
0.170415 -0.745843 2.56614 124 116 143
-0.122179 1.3608 0.880609 20 100 190
-0.230341 1.1796 1.02506 144 182 242
-0.770011 0.279707 0.556593 60 158 236
-0.203164 1.30445 0.932434 104 182 253
-0.166661 1.33928 0.942365 76 162 246
-0.626099 0.218822 0.63315 96 128 203
-0.0915894 1.27137 1.04117 4 84 172
-0.137706 1.23197 1.10229 1 82 172
-0.210461 1.08461 1.14888 72 174 255
-0.14607 1.14968 1.19387 98 200 255
-0.109172 1.1849 1.18501 106 208 254
-0.128239 1.12807 1.16481 2 98 186
-0.576052 0.221088 0.968957 14 98 189
-1.63352 -1.61204 3.03298 52 60 78
-1.60354 -1.64275 3.09346 119 138 167
-1.5583 -1.70387 3.11788 36 39 20
1.57453 0.875585 2.92011 219 232 252
-0.145103 1.36963 0.868946 57 140 230
-0.15179 1.2932 0.969304 8 91 178
-0.0619311 1.31188 0.996979 56 142 222
-0.260237 1.11957 1.12433 2 102 195
-0.212493 1.14261 1.10219 64 168 245
-0.165435 1.1961 1.09314 83 177 254
-0.103791 1.20193 1.15328 66 162 247
-0.283382 1.39353 0.82049 16 96 190
-0.631887 0.257582 0.710234 62 127 196
-0.122739 1.27353 1.01305 28 116 206
0.0120442 1.32618 0.977518 111 157 231
1.91962 -0.00484526 2.67114 124 116 152
-0.251313 1.35094 0.805797 12 106 202
-0.161363 1.12232 1.20305 74 178 249
-0.559549 0.0497635 0.872358 30 116 202
0.12306 -0.705398 2.39041 155 158 186
-0.250138 1.41312 0.774138 128 139 200
-0.35309 1.25938 0.908395 118 182 254
-1.66637 -1.55533 3.02785 10 12 13
0.115956 -0.702678 2.39426 154 156 186
-0.181215 1.35324 0.787675 80 176 252
-0.699328 0.0896393 0.515623 156 202 254
-0.127334 1.32039 0.946546 62 150 238
-0.660482 0.283552 0.749745 78 137 208
-0.107907 1.19937 1.09542 68 162 246
-0.215689 1.05853 1.17997 82 180 255
-0.060233 1.19723 1.13416 62 157 244
-0.106874 1.2392 1.23219 3 92 177
1.26619 -1.13369 2.00352 66 56 78
-0.697644 0.119748 0.512567 14 92 171
-0.623166 0.235147 0.681623 76 134 205
-0.639937 0.0218034 0.608748 122 170 244
-1.91227 -1.41046 2.43474 21 23 32
-1.31748 -0.936865 2.34975 178 170 96
-0.693613 0.325127 0.754916 162 201 254
-0.630668 0.21768 0.768821 127 181 250
-0.733975 0.217452 0.498995 47 146 232
-0.670191 0.290706 0.711846 168 205 252
-0.654734 0.292682 0.747201 87 138 204
-0.12346 1.17757 1.14658 2 98 191
-0.554993 0.196642 0.997716 12 95 184
-0.710845 -1.54911 2.95257 88 58 13
-1.25374 -1.63268 3.39501 132 46 46
-0.738951 0.238226 0.544116 9 108 201
-0.3101 1.20677 0.858763 150 208 252
-0.703568 0.107152 0.63829 120 164 240
-0.640558 -0.0140453 0.348239 118 150 217
-0.540803 -0.0770429 0.804175 172 190 242
1.10306 -0.942432 2.13246 52 41 62
1.61366 -0.0316326 2.50483 138 148 190
-0.633263 -0.0315311 0.321567 106 136 204
-0.592033 0.0926265 0.725181 44 136 224
-1.3131 -0.982079 2.32554 186 178 103
-1.56422 -1.70208 3.10899 4 2 10
1.24736 -0.73964 2.31048 76 72 97
0.0228375 -0.648776 2.76521 156 158 199
1.60836 0.0877189 2.26919 160 169 218
-0.657501 0.0268939 0.548348 134 172 238
-0.12544 1.12809 1.16105 76 176 250
-0.659024 0.0397574 0.596556 68 113 190
1.11558 -0.948522 2.11682 54 44 64
-0.407168 1.22828 0.760831 209 211 254
-0.240088 1.27213 0.780502 72 162 247
-0.274127 1.29426 0.853962 18 90 173
-0.218555 1.32091 0.909197 4 90 178
-0.140021 1.31334 0.907 12 92 180
-0.113872 1.33241 0.900644 53 136 224
-0.242611 1.14278 1.02407 42 132 220
-0.306159 1.11772 1.07451 0 88 182
-0.211806 1.15638 1.05596 76 177 254
-0.113484 1.2525 1.04425 72 162 248
-0.259976 1.08762 1.16865 92 188 252
-0.254798 1.09935 1.17647 0 94 186
-0.175025 1.15906 1.14909 78 178 255
-0.623639 0.259626 0.906815 53 152 249
-0.645338 0.172721 0.868007 69 174 254
-0.0357329 1.25038 1.12162 64 155 242
-0.6295 0.159728 0.87978 46 146 240
-0.136341 1.1615 1.18193 18 116 204
-0.25002 1.04231 1.20469 69 168 251
-0.131349 1.17718 1.19643 78 179 250
-0.131085 1.1194 1.18933 16 118 200
-0.131416 1.13806 1.20751 84 181 252
-0.580617 0.227369 0.970476 6 90 186
-0.24004 1.01297 1.2411 42 97 168
-1.82475 -1.26591 2.30352 20 12 10
1.61402 0.85484 2.88337 185 187 230
1.62759 0.837632 2.90493 198 201 240
-0.344236 1.29276 0.852032 20 96 176
-0.166866 1.34771 0.899344 64 152 238
-0.72628 0.355596 0.721982 174 212 254
-0.718698 0.341042 0.742729 188 232 255
-0.0994865 1.31439 0.935777 76 165 243
-0.221605 1.17544 1.03817 160 206 255
-0.225466 1.16119 1.0887 15 112 202
-0.129508 1.24491 1.06853 10 97 186
-0.674427 0.256467 0.840415 156 215 255
-0.654137 0.275668 0.851468 75 174 253
-0.225267 1.10746 1.13143 8 104 198
-0.257439 1.08357 1.1536 93 189 252
-0.185416 1.07226 1.11992 66 163 248
-0.100267 1.18001 1.17328 92 192 250
-0.617158 0.226238 0.931249 72 170 254
-0.0903221 1.11781 1.1297 52 146 217
-0.594466 0.211886 0.982468 40 138 234
-1.38257 -0.472838 2.55529 24 30 45
-1.22661 -0.760715 2.73196 10 6 3
0.200705 -0.766853 2.54835 106 100 126
-1.42337 -1.17041 3.18913 20 24 25
1.59588 0.882541 2.88562 147 150 192
1.63016 0.836675 2.90243 200 202 241
-0.744351 0.22128 0.498549 30 120 208
-0.702813 0.0980137 0.476059 159 200 245
-0.685754 0.334413 0.79267 43 112 197
-0.669536 0.289625 0.869045 72 170 245
-0.635843 0.163719 0.850239 56 164 254
-0.116846 1.17908 1.1496 4 94 185
-0.269362 1.01281 1.23762 50 95 167
-1.92889 -1.39285 2.46348 31 38 44
0.134945 -0.760439 2.63904 130 127 159
-0.448922 -1.6201 3.08567 46 26 6
-0.269725 1.31515 0.844029 22 122 213
-0.324232 1.15109 0.981477 73 157 236
-0.689467 0.336803 0.796782 54 123 208
-0.334264 1.11215 1.07109 67 160 249
-0.656049 0.238396 0.817832 112 165 232
-0.262684 1.05539 1.23651 64 160 244
-0.25217 1.00375 1.22918 48 92 164
-0.531274 0.103514 0.936388 0 73 159
-0.195003 1.38069 0.808671 22 103 182
-0.0342898 1.34977 0.991864 57 107 179
-0.269873 1.05966 1.28576 12 95 183
-0.575549 0.222873 1.04037 8 86 180
-0.550101 0.113625 0.95793 0 70 158
-1.86796 -1.21015 2.34745 4 0 3
-1.23589 -0.761395 2.73398 6 4 7
0.027523 -1.02762 2.4743 178 193 238
-1.29439 -2.41736 3.39753 170 168 126
1.58108 0.861549 2.91866 180 182 226
-1.27173 -1.15461 3.16673 2 0 2
0.212882 -0.808787 2.65056 187 200 244
-1.59708 -1.64375 3.14018 4 3 8
-1.32616 -1.46014 3.36208 152 49 57
-1.28257 -2.42885 3.39605 183 181 118
-0.237493 1.32605 0.765025 41 136 222
-0.0698047 1.21608 1.16928 69 157 242
-1.35664 -1.24577 3.22111 173 202 240
-1.49852 -1.45292 3.26966 24 24 14
-1.99615 -1.20823 2.20159 22 27 43
-1.99014 -1.22142 2.18095 34 42 60
-1.38216 -1.20253 3.182 128 152 187
1.64732 -0.00261326 2.29582 105 112 152
-1.68673 -1.55298 2.66364 191 180 93
-2.00525 -1.19453 2.21342 16 20 36
-1.93123 -1.39943 2.43222 8 12 18
-1.82416 -1.25125 2.31339 50 45 40
0.106596 -1.1164 2.63033 118 122 152
-2.01016 -1.1947 2.21275 18 22 36
-0.249118 1.05163 1.12735 52 117 195
1.69266 -5.38658 0.282457 58 55 76
-0.198917 1.30924 0.962132 4 71 154
-0.0819089 1.38122 0.939724 56 110 186
-0.163012 1.31867 0.992667 70 159 239
-0.0602911 1.11332 1.11905 10 116 206
1.68382 -0.0168453 2.28749 97 109 156
-0.19332 1.30642 0.952007 10 80 164
1.60345 0.0371698 2.34978 93 104 150
1.5775 0.0556295 2.3643 102 111 156
-0.196026 1.30674 0.952719 12 87 170
0.868066 0.624855 0.933807 103 98 118
1.68591 -0.0264414 2.2875 96 104 148
1.56923 0.0551914 2.37257 90 98 142
-0.653996 0.29039 0.747343 66 128 206
1.80341 0.523811 2.21795 86 83 100
1.53474 0.14522 2.31954 151 162 212
1.53152 0.0725039 2.39713 98 107 147
1.82901 -0.160952 2.18649 100 108 148
1.53713 0.0648953 2.40333 92 100 140
-1.60537 -1.61868 3.10353 168 196 233
-1.39595 -1.21235 3.15203 33 38 32
-1.99734 -1.21485 2.19673 38 43 57
-1.6997 -1.50157 2.6954 192 177 103
-2.00857 -1.19043 2.20951 62 68 85
-0.278345 1.292 0.780442 68 164 248
-0.2995 1.27197 0.809605 8 98 188
-0.169953 1.34392 0.773853 58 152 238
-0.681702 0.0771002 0.538399 110 162 242
-0.18044 1.28273 0.898481 72 148 226
-0.142689 1.27339 0.972232 73 158 244
-1.64471 -1.52982 3.09029 174 204 245
-0.0588989 1.31979 0.880824 58 146 230
-1.44617 -1.62111 3.30797 144 67 51
-1.85547 -1.19067 2.35107 3 2 3
-0.555726 0.0652169 0.926849 20 80 154
1.61364 0.844893 2.60322 99 100 128
-0.616427 -1.42856 3.63626 144 116 37
-0.629761 0.231423 0.847692 11 103 192
-1.68725 -1.52441 2.99767 136 134 109
-1.43227 -0.721681 2.65352 151 150 102
-1.43949 -0.696684 2.66338 150 149 100
-0.145964 1.11543 0.917969 142 176 245
0.0853084 -1.03532 2.65914 122 124 155
-1.39761 -2.28166 2.07957 118 116 126
-1.81797 -0.948812 2.74876 89 90 110
-1.51571 -1.29265 3.3027 64 62 36
-1.26425 -1.52014 3.42769 184 170 137
-0.60376 -1.89215 3.59919 172 152 72
-1.82047 -0.933129 2.75738 82 85 112
-1.62275 -0.818485 2.6341 128 130 150
-1.6271 -0.760725 2.65074 119 117 134
0.321622 -0.402574 1.02211 115 127 159
-1.62811 -0.619809 2.68861 126 128 152
0.0728398 0.274022 1.44895 112 124 154
-0.532333 -1.65879 3.60141 114 86 8
1.80593 0.607135 2.52117 124 126 164
-0.0419349 2.1144 1.1452 59 140 233
0.532165 1.66469 0.1444 122 117 129
-1.55267 -1.52726 3.2597 160 160 146
-1.36702 -1.40322 3.36658 112 48 49
-1.27208 -2.01999 3.1637 168 126 84
2.54327 -1.06604 1.02017 18 16 30
2.45518 -0.639213 1.20545 22 20 33
-0.0372786 2.14301 1.16196 59 140 233
-1.36008 -0.302086 2.5969 124 119 116
-1.20706 -0.392035 3.24455 86 90 77
0.104853 -0.751879 2.39849 145 146 171
-1.34679 -2.40147 3.42596 138 133 123
-1.17827 -1.62481 3.48267 152 148 130
-0.51251 -0.703327 3.47374 198 171 96
2.44278 -0.574637 1.2319 20 18 32
0.537105 2.22334 0.534292 118 120 135
-0.136731 1.48448 1.14456 86 149 226
-1.44552 -1.98049 2.26034 82 86 95
-1.45839 -2.16255 2.23251 136 128 96
-1.20646 -0.583676 3.16893 95 91 71
-1.46304 -1.16054 3.2751 173 172 146
-1.11587 -1.36555 3.49665 204 194 160
-0.635824 -1.00486 3.66179 217 206 134
-0.161115 1.21128 0.807228 38 94 175
1.01148 1.00495 0.602609 126 131 153
-1.29802 -0.165086 2.57099 82 88 99
-1.29737 -0.755161 2.35771 160 161 146
-1.16293 -0.858141 2.45626 150 140 100
-1.35604 -0.958831 3.1621 170 167 132
-1.58599 -2.33386 3.32134 108 48 54
-0.317218 -2.02547 3.01713 36 19 4
2.48265 -0.846335 1.09369 34 30 44
-0.970043 -0.346864 3.318 126 24 32
0.0279912 -0.409331 2.54582 108 112 142
-1.21135 -1.7426 3.45916 132 130 121
-1.197 -1.7142 3.47961 131 128 121
-1.21185 -2.16518 3.38707 100 98 116
-0.795831 -2.24295 3.63669 152 129 57
-0.778037 -2.14106 3.67765 216 212 155
1.36111 -3.10095 1.63257 76 68 92
2.46031 -1.43968 2.40135 170 186 228
0.534395 -1.99217 1.3847 89 96 122
-1.05197 -0.736121 3.29328 130 22 36
2.52606 -0.440233 1.21912 105 103 117
-1.15002 -0.209531 2.4373 124 114 64
-1.0456 -0.609231 2.38752 120 115 118
-1.51991 -1.63948 3.11704 46 46 46
-1.1348 -0.947062 3.37498 173 144 98
-1.24267 -2.25708 3.31675 112 28 32
0.069586 -0.455885 2.73642 104 110 134
-0.751459 -2.01248 3.63999 169 144 72
-0.458988 -2.10978 3.77157 120 89 40
1.81519 -1.20569 2.1559 113 109 132
2.24559 -0.532786 2.55674 176 194 236
-1.28913 -0.146719 2.72073 99 84 54
-1.19929 -1.40523 2.23746 130 131 150
-1.14814 -0.239926 2.9509 192 176 105
0.525801 0.928671 2.13108 184 194 238
-1.52363 -2.807 3.10572 165 149 86
-0.485171 -1.84787 2.94701 30 14 10
2.0425 -0.94223 2.65482 200 220 255
-0.253678 1.15996 0.7582 136 162 227
-0.156458 1.28327 0.682674 70 146 236
-0.15343 0.867321 1.05583 56 158 239
