ply
format ascii 1.0
element vertex 1298
property float x
property float y
property float z
property uchar red
property uchar green
property uchar blue
end_header
-0.0945962 0.381843 -0.483945 0 255 0
-0.00680327 0.386104 -0.484875 0 255 0
0.0999726 0.397648 -0.464682 0 255 0
0.104008 0.390095 -0.481509 0 255 0
0.000804618 0.397842 -0.448267 0 255 0
-0.103673 0.385309 -0.486716 0 255 0
-0.0819953 0.389194 -0.464446 0 255 0
0.0886099 0.400643 -0.446009 0 255 0
-0.0641712 0.387852 -0.4904 0 255 0
-0.0537879 0.394323 -0.462598 0 255 0
-0.0800569 0.40752 -0.42298 0 255 0
0.000964836 0.410179 -0.402938 0 255 0
-0.0940844 0.4245 -0.37498 0 255 0
-0.138406 0.416306 -0.384885 0 255 0
-0.0216368 0.42232 -0.390291 0 255 0
0.00176202 0.380434 -0.536662 0 255 0
0.00599983 0.379673 -0.555752 0 255 0
0.124289 0.389872 -0.523793 0 255 0
0.0367305 0.380124 -0.547741 0 255 0
-0.190849 0.566729 0.0697996 70 66 58
-0.209571 0.656506 0.0849015 164 158 147
-0.200113 0.684309 0.0821446 105 98 92
0.11011 0.742971 0.166659 27 26 24
-0.194199 0.661085 0.0899091 75 70 65
-0.182908 0.651055 0.0905102 71 49 46
-0.196232 0.689896 0.0876311 63 62 60
0.00420264 0.733793 0.177186 32 30 30
0.0851063 0.691276 0.163349 115 57 30
-0.173052 0.65237 0.0766713 64 62 56
0.0471955 0.734875 0.146181 18 16 17
-0.165752 0.57282 0.033259 18 20 16
-0.179046 0.693421 0.107879 155 150 145
0.0485853 0.740071 0.131794 40 39 37
-0.0896868 0.658713 0.06106 98 92 86
-0.0847516 0.712399 0.0867883 8 8 8
-0.128386 0.651179 0.0482586 30 28 26
-0.199272 0.688564 0.0810721 25 24 22
-0.144963 0.693605 0.0370785 10 10 10
-0.206598 0.694745 0.0867157 200 193 181
-0.177497 0.693777 0.063144 32 30 29
0.0209146 0.648427 0.158741 92 86 84
-0.0772461 0.720326 0.0862921 26 26 22
-0.133971 0.612271 0.05608 32 31 29
0.0207524 0.735949 0.172589 42 40 38
0.0466342 0.733951 0.149782 20 20 22
-0.102961 0.5183 0.0570272 144 102 103
-0.130151 0.696077 0.0478425 36 32 28
0.107733 0.625532 0.163281 119 68 46
-0.193798 0.560501 0.0720411 166 173 150
-0.112255 0.659859 0.0543065 104 94 82
-0.18871 0.651519 0.0903627 120 105 98
0.0263243 0.731242 0.229378 134 125 115
0.0844967 0.596624 0.187483 139 72 34
0.0353152 0.602419 0.187519 140 80 48
0.0277965 0.726605 0.14645 25 23 24
-0.0967147 0.612402 0.0699914 42 39 36
-0.117376 0.704555 0.0451081 46 45 43
-0.327208 0.610295 0.137189 172 159 143
0.00978057 0.734063 0.172251 28 26 26
-0.088267 0.640256 0.0611737 96 92 84
0.0541514 0.714535 0.178931 38 8 0
-0.107183 0.607849 0.0545953 22 20 18
-0.205531 0.685616 0.0828118 164 157 144
-0.15359 0.699592 0.0347199 18 16 14
0.026107 0.728874 0.1359 25 24 22
-0.0764376 0.504024 0.0524671 164 152 136
0.0584242 0.697104 0.156177 118 62 29
0.0399188 0.672804 0.162828 106 81 54
-0.121134 0.707289 0.0446584 22 21 19
-0.142178 0.633403 0.0366916 62 61 54
0.0222289 0.734237 0.155804 20 20 18
-0.132972 0.703543 0.0376208 52 52 50
0.0847809 0.633446 0.162301 88 35 7
-0.123061 0.633324 0.0417422 72 70 64
-0.179771 0.694912 0.0542798 28 26 22
-0.161231 0.579237 0.0281392 52 71 56
-0.0738397 0.715789 0.076413 18 16 16
-0.00032985 0.672731 0.185603 106 58 34
-0.141065 0.693741 0.0464231 17 17 17
0.0463185 0.665007 0.149527 95 54 31
0.0546463 0.738803 0.135638 31 30 28
-0.0923069 0.617985 0.0625254 36 34 31
-0.15853 0.573505 0.0214834 50 71 54
-0.00317812 0.726681 0.18655 44 40 37
0.0536669 0.734401 0.137842 8 4 3
-0.138908 0.702857 0.0565141 6 6 6
-0.128717 0.701778 0.0433356 6 6 4
-0.0927444 0.531193 0.045647 160 100 108
-0.126868 0.703924 0.0362421 30 29 27
-0.075213 0.716857 0.071832 34 32 32
-0.187723 0.691959 0.101542 114 108 102
0.0887956 0.736375 0.199771 66 30 12
-0.152363 0.692322 0.0494697 18 18 18
0.0403099 0.592316 0.234398 180 118 74
0.013337 0.647405 0.164885 124 101 77
-0.193081 0.689538 0.0802856 24 24 22
0.0687889 0.696336 0.17497 82 35 10
0.031265 0.648868 0.162738 150 122 83
-0.123654 0.704558 0.0445062 18 17 15
-0.205112 0.623744 0.0791727 176 168 156
-0.192588 0.692924 0.0800342 24 22 20
-0.0912359 0.503167 0.0455534 111 104 92
0.0700943 0.732315 0.131845 30 27 26
-0.129144 0.59937 0.0507641 52 51 48
0.0681126 0.706542 0.175597 86 38 16
-0.151406 0.700201 0.0393252 20 20 18
0.00503314 0.656827 0.181136 234 215 196
-0.204298 0.665279 0.083052 165 158 147
0.0166427 0.665187 0.160246 68 26 26
0.0859832 0.744688 0.152043 46 44 44
0.00479026 0.654699 0.185906 231 218 201
0.0216194 0.587514 0.223887 204 168 144
-0.153842 0.523688 0.0429673 70 68 58
-0.0198976 0.664735 0.170059 159 74 8
-0.190109 0.568429 0.0519827 118 116 105
0.0555949 0.58593 0.17243 142 82 45
-0.157722 0.563729 0.0195939 40 101 66
0.0179851 0.631804 0.169126 10 3 2
0.118373 0.606418 0.145517 148 110 84
0.0381105 0.591816 0.237921 171 130 105
-0.13969 0.689523 0.0580981 8 4 2
-0.0472414 0.607093 0.140718 146 132 116
0.2879 0.763648 0.538335 166 152 134
-0.136592 0.522635 0.032884 42 40 36
-0.0977548 0.518779 0.0494187 145 92 97
0.0266461 0.729365 0.153625 58 56 56
-0.15801 0.697581 0.0325091 16 16 16
-0.0314984 0.60202 0.150918 186 134 74
0.0941875 0.739464 0.158222 56 52 48
-0.122516 0.670477 0.0571442 44 44 39
0.0055529 0.658765 0.18289 226 212 192
0.0893041 0.642532 0.169959 143 96 63
0.0351381 0.624211 0.185559 98 50 23
0.0287768 0.635858 0.171137 92 41 16
-0.106979 0.641207 0.0438396 154 137 121
-0.0673994 0.648523 0.131266 160 151 139
0.0534553 0.58526 0.209167 194 180 162
0.0250449 0.667886 0.167035 84 63 50
0.00285088 0.728595 0.18357 24 22 22
-0.190464 0.692632 0.0879915 35 34 32
-0.172679 0.693546 0.0499 30 28 26
-0.160142 0.691099 0.0867973 20 18 16
0.0343912 0.731667 0.15852 14 12 11
0.125008 0.742768 0.173238 52 48 46
0.126899 0.748716 0.196974 36 32 29
-0.125969 0.612762 0.0449157 10 8 6
-0.12233 0.604793 0.0417998 28 28 26
-0.162018 0.70006 0.0521745 16 14 14
-0.102153 0.590551 0.0513996 31 28 24
-0.133077 0.585794 0.0310261 58 58 53
-0.115872 0.703398 0.0530014 8 8 7
0.0763717 0.707579 0.179616 75 32 12
-0.151178 0.538621 0.0337453 18 17 12
-0.150101 0.533768 0.0333779 10 10 7
-0.181619 0.583413 0.0416872 158 148 132
-0.119923 0.652921 0.0380061 84 78 72
0.0905211 0.745152 0.152391 27 26 25
-0.136664 0.525265 0.0346034 28 25 21
0.0140944 0.613153 0.183939 118 56 21
-0.124522 0.673638 0.0483438 44 44 39
-0.120579 0.57471 0.0241089 69 66 59
0.0977168 0.612733 0.168623 66 18 1
-0.0922794 0.526517 0.0438881 158 100 106
-0.15976 0.545554 0.0456245 34 28 16
-0.0953671 0.619883 0.0725547 28 25 22
-0.181659 0.695381 0.0628845 18 17 14
-0.142864 0.703457 0.0262221 20 20 20
-0.151761 0.569105 0.0251662 116 118 66
-0.131414 0.561553 0.0365296 43 40 35
0.0136235 0.62274 0.183418 143 96 66
0.029077 0.656029 0.155918 118 98 70
-0.0675002 0.64776 0.131656 129 120 108
-0.121833 0.602536 0.0431501 27 26 24
-0.132126 0.526185 0.0292281 50 47 42
0.0564315 0.628667 0.151345 90 36 8
0.0325712 0.661962 0.158936 134 110 80
0.0183817 0.637961 0.168998 18 10 10
-0.161392 0.691172 0.0364221 14 14 14
0.0166848 0.73354 0.221244 40 36 30
0.0865934 0.638486 0.14418 148 81 40
0.111992 0.672827 0.174754 100 68 46
0.0296589 0.717215 0.207562 105 77 64
0.10584 0.675615 0.177419 104 60 40
-0.0988901 0.674943 0.0751916 83 72 64
-0.147538 0.503749 0.0935412 89 70 65
-0.164973 0.655882 0.0572767 122 119 114
-0.156343 0.661498 0.053534 56 52 48
-0.130055 0.504095 0.0820657 51 50 43
0.149436 0.759805 0.186145 120 112 100
-0.145112 0.496016 0.0782298 98 95 86
-0.151975 0.511667 0.0863196 88 68 62
-0.187231 0.691184 0.0745814 36 36 34
-0.192548 0.695124 0.100277 30 28 24
-0.159027 0.516032 0.128797 194 163 155
-0.0752413 0.535787 0.0834402 98 68 66
0.066348 0.638156 0.145638 122 61 28
-0.111484 0.708965 0.0546016 16 16 15
-0.182631 0.657098 0.0873869 204 196 187
-0.0986918 0.696177 0.0862819 32 29 24
-0.0880715 0.718074 0.110397 13 9 6
-0.159084 0.677473 0.0756878 56 50 42
0.0987619 0.716344 0.168438 144 121 106
-0.169133 0.660177 0.0825931 92 88 82
0.00930782 0.727846 0.185298 10 10 8
0.0275439 0.739373 0.206359 37 30 27
-0.174018 0.658865 0.0769773 92 88 79
-0.173819 0.694917 0.0590566 48 47 46
-0.0711153 0.535591 0.0782051 50 48 42
0.12544 0.751221 0.176346 52 50 44
-0.172605 0.625096 0.0819189 57 55 50
-0.169852 0.70072 0.0873339 19 18 18
0.107622 0.713613 0.190806 104 80 64
-0.18462 0.560036 0.053085 86 99 82
0.0959724 0.724326 0.180157 65 30 14
-0.0773427 0.506133 0.0241339 138 122 108
0.0341387 0.740702 0.163967 32 31 29
-0.135295 0.677476 0.0663016 44 42 38
-0.162933 0.635537 0.0907161 86 84 76
-0.189806 0.563829 0.0535087 50 52 47
0.107303 0.748058 0.160961 24 24 20
-0.00308286 0.650409 0.180225 205 176 148
0.0837246 0.711846 0.164545 52 13 1
-0.162688 0.566615 0.0466163 74 96 60
-0.072463 0.599576 0.0673512 52 48 44
0.0949406 0.717442 0.178744 80 32 15
-0.0660795 0.717776 0.0928954 110 102 94
-0.0578208 0.722023 0.0868646 134 126 116
-0.188014 0.566536 0.0583756 100 100 88
-0.13443 0.493984 0.0523326 78 75 64
-0.0669164 0.619325 0.10204 173 166 152
-0.147177 0.512698 0.08828 90 86 78
0.0590893 0.638775 0.160857 92 42 15
-0.192192 0.575306 0.0666957 93 88 78
0.0253951 0.624642 0.173585 64 16 1
-0.195193 0.641059 0.101305 165 158 150
0.031922 0.568308 0.130409 139 87 56
-0.172597 0.630484 0.0783912 52 49 43
-0.0762577 0.607369 0.0629371 57 54 48
-0.129618 0.49467 0.0697001 149 140 128
0.0614099 0.736531 0.134815 26 24 21
-0.179544 0.520771 0.0999755 160 150 136
-0.143068 0.655927 0.0368591 62 60 56
-0.165664 0.692079 0.0440848 21 20 20
-0.161064 0.563582 0.0260333 0 18 4
-0.144103 0.664937 0.0399528 56 56 53
-0.065607 0.723884 0.0884606 18 17 15
-0.123885 0.651341 0.04183 62 58 49
-0.0697615 0.555505 0.0873753 36 33 29
-0.140949 0.610263 0.0353121 46 44 40
-0.191857 0.696247 0.0788208 16 14 12
-0.191977 0.524452 0.0885419 166 154 139
-0.178745 0.595825 0.0356742 174 162 148
-0.169476 0.697892 0.0988267 16 14 12
-0.0772741 0.71479 0.0866346 35 33 30
-0.0767655 0.522708 0.0544911 132 98 93
-0.15939 0.524064 0.0414181 50 48 44
-0.148842 0.522701 0.017318 12 10 8
-0.179487 0.613704 0.0715987 188 176 159
-0.152204 0.631595 0.0477502 76 74 68
-0.115464 0.641336 0.0350966 198 183 161
-0.0835791 0.675993 0.0837629 112 101 92
-0.153553 0.653467 0.0490819 92 88 82
0.0535011 0.585237 0.175619 163 100 62
0.0844795 0.65352 0.16537 71 26 5
0.134348 0.748766 0.199424 90 82 72
-0.0872669 0.621223 0.0627168 54 50 46
-0.129507 0.677623 0.0563825 49 48 44
-0.0893614 0.643606 0.0503046 138 126 115
-0.161939 0.696617 0.0556263 19 19 19
-0.167051 0.665757 0.109431 90 86 80
-0.0876983 0.714598 0.121179 90 82 76
-0.170227 0.690376 0.111403 116 109 98
-0.139284 0.675677 0.0610899 34 34 32
-0.160835 0.560444 0.0372025 40 36 10
-0.173944 0.590345 0.0329179 164 146 126
0.0116624 0.659191 0.156935 151 122 111
-0.0787776 0.613303 0.0763846 60 57 51
-0.180524 0.693397 0.0734969 15 14 12
-0.169495 0.580888 0.0386863 93 90 76
-0.172248 0.694064 0.0683706 9 8 6
-0.161365 0.571354 0.0281159 42 45 40
0.0891618 0.631394 0.156624 110 52 20
-0.0977443 0.680126 0.0681558 70 58 54
-0.181627 0.69255 0.0801037 17 17 16
0.0112302 0.676228 0.195128 74 28 26
-0.164546 0.699655 0.0651333 15 15 15
0.141764 0.651676 0.197054 174 144 126
0.112969 0.742207 0.207758 46 35 26
-0.150049 0.605673 0.0404478 68 66 60
-0.120091 0.499798 0.0797184 122 109 96
-0.0813767 0.637418 0.0712916 145 137 126
0.132321 0.656341 0.176442 62 38 24
-0.183413 0.692936 0.0701528 18 18 16
-0.103196 0.600184 0.062329 50 48 42
-0.0632387 0.593994 0.112847 54 46 36
-0.186086 0.594963 0.056805 34 34 32
0.00833464 0.725903 0.167853 16 15 12
0.0858825 0.602908 0.157019 73 23 4
0.0903946 0.629691 0.111967 141 77 41
-0.153364 0.701065 0.0276372 12 12 12
-0.165398 0.561646 0.0386188 38 39 29
-0.128219 0.706106 0.0341415 8 8 8
0.107625 0.689153 0.183528 167 130 96
-0.151717 0.693082 0.0360098 14 12 13
-0.0804782 0.626521 0.0746026 53 49 44
-0.00801857 0.640757 0.172729 182 144 109
-0.0775052 0.532396 0.0520363 83 60 60
-0.1568 0.512901 0.0818228 122 109 96
0.0882765 0.634899 0.150054 210 172 144
-0.13699 0.60628 0.0560241 56 54 50
-0.0992882 0.713011 0.0583256 14 12 12
0.0488882 0.678175 0.175928 92 65 36
0.061482 0.74608 0.138995 18 16 14
-0.194837 0.569809 0.104445 114 126 94
0.00886158 0.730498 0.180752 30 30 28
-0.0239196 0.59194 0.151957 242 170 84
-0.0757715 0.71658 0.103489 80 72 66
-0.0287064 0.592151 0.155369 212 134 52
-0.133806 0.563251 0.0272539 52 50 46
-0.0887972 0.577082 0.0556539 51 47 42
-0.170644 0.688262 0.0995705 41 36 33
0.092823 0.684494 0.161577 170 99 60
-0.138262 0.56386 0.0322144 35 34 30
-0.179126 0.523734 0.0727056 44 41 32
0.024405 0.63329 0.175458 72 32 12
-0.0981108 0.551458 0.0526309 128 74 80
0.0713483 0.707976 0.200467 118 60 30
0.00739304 0.640283 0.182658 202 198 187
-0.0635126 0.570094 0.095198 126 116 110
-0.145192 0.544736 0.0261732 63 56 31
-0.0877114 0.63728 0.0643461 49 46 42
-0.169829 0.666462 0.108969 87 83 76
-0.177707 0.717532 0.0815728 20 18 16
-0.167463 0.696725 0.0458173 30 29 28
-0.0780938 0.529462 0.0491781 57 36 33
-0.0678814 0.727352 0.113609 110 104 95
0.00559511 0.623885 0.240053 172 142 118
0.102264 0.746388 0.16256 38 36 36
-0.0761194 0.574266 0.12388 76 52 52
-0.12948 0.669745 0.0528816 52 50 46
-0.135692 0.636088 0.0209308 51 50 46
-0.147675 0.511075 0.0499925 96 93 84
-0.188239 0.697863 0.0796369 46 45 44
0.0101323 0.601311 0.236085 204 178 151
0.0108286 0.650626 0.164347 132 110 84
0.0278352 0.733376 0.170539 23 22 22
-0.0637348 0.585599 0.110533 94 88 75
-0.0964951 0.707865 0.0608928 12 10 12
-0.0700697 0.621045 0.104793 57 52 44
-0.15494 0.539809 0.034258 12 12 10
-0.190392 0.65126 0.0893177 36 34 28
0.00702525 0.625341 0.227305 172 146 126
0.098665 0.677373 0.164865 87 44 25
-0.132272 0.648947 0.0499934 46 44 40
0.0195346 0.744919 0.289945 200 190 174
-0.0699869 0.655266 0.13434 154 145 131
0.00155579 0.617932 0.194895 183 152 132
-0.103645 0.597609 0.0467967 42 40 36
-0.0687523 0.576169 0.0740347 62 58 52
-0.169217 0.570735 0.052558 98 102 88
-0.193758 0.562564 0.060903 141 136 120
-0.183229 0.687165 0.0881026 24 22 17
-0.0522333 0.599458 0.133658 140 124 108
-0.150042 0.696203 0.0493534 6 6 6
-0.135719 0.585027 0.0354213 38 38 33
-0.0916806 0.713798 0.124162 80 71 64
0.0927609 0.712739 0.178285 77 40 23
-0.168411 0.658829 0.114943 90 86 79
0.086043 0.623666 0.161994 86 36 12
-0.13998 0.673271 0.0698097 50 48 44
-0.182251 0.529913 0.0716626 39 36 31
0.068574 0.494832 0.211071 186 172 152
0.0751234 0.625013 0.127333 76 25 1
0.0354835 0.591077 0.240978 211 190 169
-0.188624 0.672653 0.158142 38 38 33
-0.106583 0.710019 0.0574737 14 14 13
-0.154952 0.66823 0.0294692 10 8 8
0.0100339 0.634286 0.234092 182 156 134
-0.120765 0.615619 0.0253708 28 28 26
-0.142069 0.641415 0.0338024 60 60 54
-0.160581 0.549355 0.0402308 58 51 24
-0.149177 0.609526 0.0165517 79 76 68
0.00449816 0.654338 0.158681 222 210 191
0.0214311 0.576907 0.215025 197 182 162
0.0306945 0.594716 0.25106 216 181 152
-0.115856 0.706606 0.0417579 22 21 20
0.105733 0.589622 0.145837 197 167 140
-0.14289 0.486809 0.0965964 185 170 151
0.0988775 0.619923 0.179087 64 18 2
-0.182468 0.530592 0.0272053 198 175 139
-0.160198 0.510655 0.140351 156 138 130
0.0100709 0.62165 0.195243 124 60 21
-0.139631 0.583021 0.0350227 18 17 15
0.0269369 0.716669 0.194646 55 32 20
0.0352286 0.678456 0.184909 92 64 40
0.00561282 0.651372 0.18538 231 216 194
-0.0860467 0.520107 0.0488497 148 90 96
-0.105551 0.510843 0.0847278 165 157 146
0.631791 0.948074 2.4234 186 172 152
-0.138469 0.703554 0.0350393 26 26 25
0.042256 0.643219 0.142204 17 2 0
-0.218795 0.675732 0.143495 98 96 85
0.0192808 0.618538 0.0924243 161 136 108
-0.0870468 0.713447 0.11495 76 69 64
-0.0729423 0.623057 0.110084 48 46 40
-0.187665 0.691888 0.105533 92 86 78
-0.170507 0.695173 0.0605606 14 14 12
1.13516 1.26893 4.24226 186 170 152
0.00439528 0.608954 0.230147 210 183 162
0.0303732 0.632532 0.153891 87 47 24
-0.121517 0.652973 0.0404134 80 72 62
-0.166467 0.564337 0.0377255 76 92 72
0.0713041 0.743739 0.142565 34 32 32
-0.248767 0.636952 0.223346 196 184 166
0.0349055 0.648149 0.155874 171 154 126
-0.133817 0.650501 0.0546712 46 45 41
0.0789524 0.733936 0.18754 66 29 10
0.0155918 0.592864 0.231427 217 185 160
-0.144827 0.538215 0.0317594 34 31 27
-0.0965483 0.530034 0.0405789 153 98 103
-0.176949 0.648868 0.140423 85 82 75
-0.186119 0.642929 0.131571 66 62 54
-0.111562 0.540987 0.0686056 43 38 34
0.103198 0.591025 0.130677 182 118 70
-0.165818 0.565446 0.0325046 50 52 39
-0.0774955 0.714725 0.104287 72 62 58
-0.0703124 0.565852 0.0895848 40 38 32
-0.182676 0.529345 0.113035 110 106 94
-0.281389 0.397178 0.689969 172 156 140
-0.0998735 0.680215 0.0193617 6 6 4
0.00929024 0.731656 0.214319 46 42 38
-0.349319 0.383236 0.671513 176 160 145
-0.302269 0.469601 0.667966 190 174 158
-0.128746 0.583932 0.0242546 50 50 44
0.0121172 0.627896 0.191814 140 97 76
-0.174305 0.521719 0.0649979 86 84 73
-0.0961516 0.628311 0.00573634 180 165 146
0.0397269 0.584518 0.200588 148 79 42
-0.353804 0.56655 0.72079 180 164 148
-0.31791 0.466767 0.645872 188 172 156
-0.141027 0.505409 0.070078 69 66 58
-0.173143 0.517774 0.10708 171 160 144
0.0484948 0.66095 0.151311 96 56 26
-0.161364 0.703639 0.0944695 11 10 9
0.0103026 0.681039 0.189667 62 14 16
-0.158191 0.696162 0.046419 18 18 17
-0.11016 0.689612 0.0275556 5 4 4
0.102245 0.594904 0.168009 184 155 133
0.0106533 0.725725 0.152013 18 17 16
0.0932756 0.582953 0.12415 204 176 152
0.0895939 0.619095 0.152149 62 17 3
0.0411361 0.73942 0.187133 17 14 14
-0.125895 0.571893 0.0125311 51 50 45
-0.127052 0.700924 0.0365975 37 36 35
-0.0966803 0.6289 0.049322 54 50 46
0.0329633 0.728107 0.136987 22 22 20
0.105007 0.654547 0.153331 120 68 42
-0.126386 0.517571 0.0545411 79 78 68
0.0182239 0.665753 0.16035 60 26 16
-0.139403 0.62277 0.0814219 44 43 39
-0.118368 0.591022 0.0353151 32 32 26
-0.0158625 0.661813 0.170204 165 78 15
0.103956 0.65029 0.162089 150 84 44
-0.168584 0.684438 0.0898731 28 24 18
-0.142734 0.693526 0.0131967 14 14 14
-0.0589643 0.730238 0.196918 205 196 180
0.092839 0.71038 0.166646 127 65 34
0.133457 0.740916 0.166407 46 42 38
0.100477 0.710768 0.167457 190 167 145
-0.0456082 0.745156 0.478233 102 95 86
0.059478 0.739648 0.174492 19 12 10
0.119928 0.753446 0.174677 30 27 24
-0.0644283 0.722609 0.0967418 103 96 87
0.103226 0.688858 0.174357 86 51 31
0.0401459 0.735945 0.1586 24 24 24
0.0752348 0.631631 0.170646 126 62 26
0.0537575 0.699751 0.197535 84 51 25
0.0670992 0.67161 0.17635 52 7 0
-0.0835554 0.718347 0.104822 10 7 4
-0.107147 0.595401 0.0443831 52 50 46
-0.155154 0.577498 0.0221245 46 61 34
-0.180295 0.679318 0.062386 20 20 20
-0.0801266 0.720671 0.119435 114 104 98
0.00813952 0.663138 0.179821 234 218 196
-0.115354 0.671681 0.0471968 44 43 38
-0.117661 0.692763 0.0265876 26 26 22
-0.0934758 0.603699 0.0634183 56 54 48
0.0451363 0.578017 0.21457 196 185 166
-0.127255 0.58056 0.0400503 57 56 52
0.00532155 0.317122 0.452401 198 184 167
-0.107324 0.629067 0.047275 50 48 44
-0.121188 0.699738 0.0459625 8 8 8
-0.128953 0.658425 0.0467995 41 40 38
-0.133002 0.514177 0.0657865 42 38 30
-0.121682 0.707928 0.0445559 28 26 24
-0.149221 0.693391 0.0163987 18 16 14
0.046948 0.728898 0.121248 13 10 10
0.00761931 0.642359 0.186058 159 154 146
0.136177 0.708302 0.244944 156 138 128
0.00496416 0.652479 0.184118 231 216 199
-0.0743573 0.594957 0.0708908 48 45 41
-0.147492 0.698756 0.0355887 32 32 30
-0.106912 0.709096 0.0540823 20 18 18
0.378109 0.434943 0.644693 164 148 132
-0.197715 0.385964 0.412732 178 164 148
-0.066099 0.596107 0.0931378 140 132 120
0.0975655 0.635602 0.175468 81 35 12
-0.150973 0.522515 0.209125 152 142 130
0.112452 0.601992 0.158113 180 114 74
-0.100331 0.682224 0.0889714 74 70 64
0.0995562 0.711001 0.169802 139 104 83
0.1182 0.678989 0.19642 150 110 88
-0.0650122 0.58164 0.0974517 96 86 78
0.051737 0.593997 0.210152 162 116 80
0.093299 0.715928 0.168147 104 48 22
-0.179363 0.60075 0.0416719 192 180 164
-0.173343 0.588721 0.0281935 159 144 122
-0.070318 0.624085 0.113869 73 68 58
-0.18711 0.556916 0.0638613 138 138 122
-0.187895 0.567383 0.0630206 101 99 86
-0.128044 0.496499 0.0819554 82 78 68
-0.0855383 0.657238 0.121403 34 26 22
-0.0971915 0.711046 0.117379 38 34 31
-0.129444 0.505716 0.0850466 62 60 54
-0.153843 0.527802 0.0391152 31 27 24
-0.148067 0.516646 0.0814185 88 86 74
0.0998531 0.718538 0.174592 116 95 78
0.000991866 0.728086 0.194456 46 40 40
-0.182208 0.558443 0.0487173 78 91 73
0.10984 0.752972 0.171571 18 16 14
-0.0835606 0.6525 0.0977236 125 120 111
0.123535 0.60993 0.173452 104 72 46
-0.138628 0.610715 0.0656108 44 43 40
-0.0867074 0.712962 0.104253 31 30 27
-0.0833028 0.674963 0.0810014 84 76 68
-0.135796 0.496355 0.0670111 68 64 54
-0.15987 0.529469 0.0374357 41 37 31
-0.158104 0.521705 0.0335094 75 72 62
-0.0035979 0.648069 0.174946 190 148 102
-0.143037 0.654819 0.0349626 66 63 58
0.0326649 0.64536 0.16109 72 56 40
0.024264 0.632508 0.17447 56 22 6
-0.0580958 0.72355 0.075953 183 176 162
-0.167343 0.520662 0.0760579 61 58 50
-0.0877636 0.620441 0.0604295 54 50 46
0.0650421 0.746975 0.152785 38 35 34
0.0151293 0.737649 0.168386 14 14 10
-0.0771636 0.513741 0.0582174 144 124 116
0.112664 0.601316 0.143458 184 126 90
-0.142231 0.519778 0.0752435 82 80 72
0.0277156 0.665305 0.157278 152 121 98
-0.118894 0.498674 0.0776289 94 87 76
0.0246541 0.623355 0.170833 77 30 5
-0.104411 0.508831 0.0805962 142 134 122
-0.136649 0.56372 0.0296089 38 38 34
-0.146855 0.509972 0.0812494 112 104 97
-0.117541 0.645608 0.0446778 206 192 167
-0.158025 0.568486 0.0185403 44 51 39
-0.102468 0.69902 0.0892489 39 36 32
-0.0994802 0.670382 0.0476907 74 68 63
-0.0767692 0.715023 0.100626 61 54 47
-0.0877136 0.621555 0.036998 48 46 42
-0.0184242 0.585313 0.135967 250 199 82
-0.108567 0.588533 0.0303995 54 52 47
-0.0985461 0.708765 0.0515356 12 11 10
-0.0870648 0.709255 0.0895604 26 26 24
-0.130426 0.552119 0.0237287 42 40 36
0.0382667 0.665426 0.197363 151 134 108
-0.075732 0.710916 0.0848027 34 30 27
-0.121021 0.549923 0.0917197 44 40 36
-0.14929 0.549241 0.0428146 66 55 28
-0.11215 0.704889 0.0483165 12 10 10
0.106949 0.597286 0.167849 196 166 146
-0.151038 0.692601 0.0380279 28 28 26
-0.146844 0.523307 0.0455186 42 42 34
0.127052 0.649897 0.178474 184 160 139
0.15852 0.696135 0.263853 74 52 36
-0.160806 0.562538 0.0353082 78 94 53
-0.0683084 0.644839 0.105838 150 144 132
-0.1658 0.566103 0.0338461 88 86 73
0.130429 0.747956 0.172046 38 38 36
0.0891985 0.632352 0.165339 107 54 22
0.104312 0.646506 0.175136 109 48 16
0.00518988 0.727448 0.196337 6 4 6
-0.106352 0.605713 0.0585942 24 23 22
0.109348 0.595756 0.162658 186 154 130
-0.13647 0.639758 0.0516043 38 37 33
-0.171314 0.568859 0.0491976 108 107 94
-0.0735411 0.659351 0.131353 183 174 161
0.012646 0.59765 0.237954 194 158 133
0.0207207 0.661392 0.152684 50 18 10
-0.128658 0.673209 0.0461013 44 43 38
-0.083421 0.65087 0.142321 80 74 62
-0.193303 0.668917 0.161518 77 74 67
0.0327642 0.740495 0.1063 194 184 168
-0.246637 0.384505 0.329209 177 161 146
-0.133677 0.700172 0.0419001 10 10 10
-0.218345 0.386911 0.326959 174 159 143
0.005753 0.634435 0.181574 174 165 152
-0.167114 0.403331 0.389266 182 167 150
-0.0623035 0.218353 0.425989 180 166 150
-0.261631 0.387418 0.33294 172 156 140
-0.200544 0.589821 0.0660105 192 180 168
-0.220629 0.39344 0.339891 173 158 142
-0.203252 0.389524 0.35861 175 160 144
-0.186091 0.692273 0.106835 139 134 128
-0.0531231 0.601694 0.134851 102 92 82
-0.328137 0.359835 0.2891 181 165 150
-0.131991 0.638239 0.0499037 33 32 30
-0.178288 0.39334 0.367295 178 163 147
-0.0988789 0.707599 0.0731609 4 4 4
0.0185243 0.655647 0.154886 35 34 32
0.0994466 0.608742 0.165367 70 20 3
-0.331473 0.360591 0.288597 178 162 147
0.0469905 0.582604 0.209658 193 180 162
0.0418524 0.591871 0.227478 154 105 72
0.0436557 0.724227 0.158748 14 10 8
-0.141572 0.611697 0.0380968 48 46 42
-0.181239 0.584115 0.0426532 158 148 130
0.00849843 0.727702 0.173472 32 30 27
-0.164986 0.367569 0.347843 190 175 159
-0.119616 0.594321 0.0395702 36 35 30
-0.160818 0.69972 0.08861 12 11 10
-0.0903265 0.376402 0.402717 184 168 153
-0.171926 0.697824 0.0451692 34 30 26
-0.0185865 0.597011 0.163734 246 214 138
0.0623529 0.677493 0.168326 67 38 23
-0.122261 0.241579 0.392163 180 166 150
-0.156331 0.206162 0.368783 178 164 148
-0.179626 0.598062 0.0408364 170 158 141
-0.134611 0.564088 0.0288997 52 51 44
-0.12624 0.530949 0.0325814 40 37 33
-0.280036 0.231282 0.316458 182 168 152
0.0973937 0.619655 0.175227 62 18 3
-0.180223 0.549817 0.0315646 56 97 66
0.0763166 0.689273 0.171097 50 10 0
-0.0682294 0.536298 0.0878816 76 71 66
-0.157028 0.539501 0.0392989 28 26 20
0.0317107 0.580264 0.205954 204 172 146
0.0370559 0.725195 0.121401 33 32 31
-0.102497 0.708061 0.0572578 39 38 37
-0.0530289 0.57872 0.129783 196 184 164
-0.107631 0.663471 0.0326327 39 38 35
0.125762 0.68136 0.206067 150 128 113
-0.166688 0.65626 0.0716544 82 78 70
-0.17264 0.635186 0.0760344 58 54 50
-0.139073 0.674595 0.0601102 24 24 21
0.109114 0.699309 0.192258 166 134 114
0.0926312 0.74782 0.157882 24 21 20
-0.156626 0.498011 0.114424 170 157 140
-0.092123 0.711358 0.107539 18 16 14
-0.171532 0.628799 0.0748224 70 66 60
-0.0649354 0.59042 0.100216 62 58 48
-0.178963 0.686614 0.0713424 30 30 28
0.417365 0.160168 0.566857 188 173 156
0.110545 0.634436 0.141709 104 44 14
0.079961 0.61305 0.45289 182 169 150
0.0124723 0.657883 0.149808 72 28 25
-0.148716 0.602231 0.0323394 85 82 74
-0.157305 0.505827 0.117501 151 140 126
-0.137503 0.536138 0.034775 6 4 4
-0.0960384 0.704183 0.0557288 8 8 8
0.10194 0.691507 0.180475 92 48 24
-0.099587 0.712433 0.0732444 10 9 6
-0.164029 0.57692 0.0287632 52 53 44
-0.131267 0.651501 0.0451425 48 47 42
0.0836618 0.73181 0.186258 68 32 12
-0.166383 0.56005 0.0292644 76 74 62
-0.114106 0.527665 0.024186 45 42 38
-0.124833 0.584174 0.0332749 50 49 44
-0.136739 0.636913 0.038825 46 45 40
-0.0970282 0.701338 0.0938881 13 10 7
-0.153733 0.653889 0.0497502 95 92 82
0.0922806 0.609202 0.17208 70 26 8
-0.170614 0.689659 0.0619921 10 10 9
0.0266167 0.736375 0.19742 31 27 24
0.118954 0.615527 0.131007 175 152 128
-0.0747771 0.534302 0.0810682 67 62 56
0.0708824 0.646015 0.169775 121 60 25
-0.14845 0.502004 0.108166 86 82 70
-0.185398 0.63647 0.101543 106 102 92
0.0417694 0.586159 0.185391 160 86 42
-0.11478 0.655745 0.11204 48 44 40
-0.132837 0.543933 0.056661 43 40 36
0.0894357 0.657797 0.179082 14 2 0
-0.198373 0.657197 0.0784479 39 36 32
-0.022707 0.730004 0.196999 150 146 140
-0.145293 0.514469 0.0397083 56 52 48
-0.0930755 0.614148 0.0876758 56 54 48
-0.144644 0.550487 0.0269379 87 77 46
-0.126693 0.581455 0.0292789 51 50 46
-0.0907438 0.6419 0.0505751 192 176 154
-0.0948416 0.714165 0.0582313 24 24 22
-0.151517 0.556704 0.0271123 177 157 86
-0.156568 0.579416 0.0271969 38 60 43
0.0950306 0.604124 0.200557 132 88 64
0.114691 0.700096 0.19699 164 144 126
-0.176107 0.651299 0.0864123 54 52 46
-0.0820303 0.621691 0.0972349 76 73 67
0.103771 0.703427 0.170436 110 84 64
-0.104883 0.600494 0.0531815 31 30 28
-0.163958 0.698505 0.0721728 20 18 18
-0.101611 0.707743 0.117218 26 26 24
-0.108456 0.605923 0.0724938 34 33 28
-0.0807251 0.65983 0.0668272 90 82 72
0.0351024 0.667096 0.174848 138 116 82
0.124549 0.695811 0.280751 150 85 46
-0.10085 0.662683 0.0519062 132 126 112
-0.0798064 0.646189 0.114965 66 61 55
-0.07904 0.628061 0.0688555 58 56 50
-0.107264 0.692429 0.0293184 14 14 14
-0.189096 0.699859 0.108492 22 20 18
-0.0445902 0.570613 0.102807 202 192 171
-0.0894713 0.640866 0.0702526 44 43 38
-0.182772 0.69345 0.0655761 30 28 28
-0.160714 0.383541 0.266409 185 172 156
0.0228499 0.652365 0.159686 14 13 11
-0.113879 0.666889 0.059432 78 70 64
-0.201712 0.642576 0.067469 97 94 84
-0.11659 0.513115 0.0699086 67 66 56
0.057271 0.69076 0.171179 81 34 12
0.0211168 0.423796 -0.13804 178 165 148
0.00588789 0.72927 0.177275 32 31 29
0.114803 0.662549 0.176032 124 74 50
-0.16372 0.689946 0.0405335 36 34 34
0.119411 0.657982 0.172312 172 147 126
-0.153358 0.682861 0.0233387 14 14 14
-0.165678 0.688011 0.0482589 22 20 18
-0.166684 0.682704 0.0315227 36 34 32
0.0351343 0.56451 0.11012 118 60 26
0.110224 0.683225 0.195608 79 36 14
-0.152765 0.679624 0.00671963 3 2 2
0.111642 0.681115 0.177817 116 58 21
0.0922546 0.646396 0.173249 164 108 68
0.0479068 0.659919 0.195064 19 16 14
0.0304433 0.628749 0.167081 96 45 11
0.00197288 0.578851 0.104576 180 157 136
-0.167095 0.694956 0.0910905 26 24 21
-0.122322 0.653369 0.0405274 68 64 56
0.0264814 0.683571 0.218107 20 18 16
0.111842 0.64701 0.162879 123 66 34
0.0360412 0.685323 0.19497 90 62 40
-0.146986 0.659858 0.0370835 80 76 68
-0.152074 0.637397 0.0442172 94 92 87
-0.107938 0.709417 0.130764 42 40 36
-0.165739 0.607432 0.0516136 101 98 92
-0.169758 0.618267 0.0638555 59 57 52
-0.153213 0.633958 0.0522523 62 58 53
-0.160186 0.51081 0.136308 100 86 82
-0.168618 0.641997 0.109609 94 90 85
-0.193206 0.54135 0.092349 160 152 141
-0.159585 0.689575 0.0463649 26 26 26
-0.0888344 0.659288 0.154631 124 118 112
-0.191983 0.725883 0.176004 118 108 98
-0.0765209 0.625425 0.114079 88 84 78
-0.100235 0.690136 0.0821778 27 26 23
0.120546 0.642865 0.152924 166 138 118
-0.0690283 0.577729 0.153287 130 123 112
-0.0719287 0.601433 0.0485585 159 152 142
0.0477227 0.72873 0.195081 4 0 0
0.0274642 0.648725 0.128291 80 64 42
0.00491412 0.608982 0.229546 186 156 134
-0.198353 0.58642 0.0602316 160 152 142
-0.158408 0.68486 0.0259711 21 21 21
-0.0980021 0.709643 0.125234 80 74 64
0.107839 0.602628 0.18502 204 180 158
-0.0725924 0.665022 0.155723 184 176 166
-0.165333 0.608535 0.116601 36 34 34
-0.134956 0.579607 0.036816 54 54 51
0.0978578 0.754923 0.180221 18 16 13
-0.149102 0.54685 0.0398434 46 38 20
-0.130106 0.666371 0.0672049 45 44 40
-0.13171 0.69982 0.0318872 47 48 44
-0.148208 0.673799 0.012828 48 46 45
-0.165388 0.680931 0.0400466 32 32 30
-0.154232 0.68496 0.037085 16 15 13
-0.145094 0.680124 0.018848 17 16 16
-0.119705 0.668484 -0.0439044 156 150 134
-0.0673203 0.60982 0.113103 148 140 128
0.00558188 0.651723 0.1892 222 208 187
-0.211548 0.465474 0.394873 184 170 152
0.0944653 0.684897 0.171461 78 32 12
0.039713 0.648497 0.145827 186 160 130
0.0873004 0.661251 0.154804 96 46 20
-0.149631 0.528626 0.381872 182 168 150
-0.140143 0.694701 0.0402309 7 7 7
-0.115146 0.687851 0.0659486 36 35 32
0.230137 0.676349 0.605114 190 176 158
-0.110014 0.550254 0.0572826 44 39 38
0.0871391 0.634719 0.55969 192 178 158
0.268482 0.269749 0.654032 168 152 136
-0.111959 0.705076 0.0409683 16 14 14
-0.106384 0.224855 0.437551 180 166 150
0.0420147 0.641579 0.147225 16 14 12
-0.186079 0.653248 0.0884334 148 140 132
0.0157006 0.594214 0.237391 206 179 160
0.101142 0.606731 0.13773 68 20 4
-0.111563 0.624702 0.0333685 44 40 38
0.08731 0.676601 0.163949 56 18 6
-0.122879 0.606223 0.0433877 28 26 26
0.0494297 0.277994 0.27251 178 164 148
-0.262926 0.384536 0.369068 174 160 144
-0.225764 0.386199 0.387593 174 160 144
-0.0969828 0.37236 0.455006 183 167 152
0.18398 0.599428 0.610742 184 168 151
-0.170859 0.364404 0.424839 190 175 159
0.0911808 0.643775 0.158425 137 75 34
-0.148406 0.076692 0.471965 181 166 150
-0.19723 0.422491 0.403359 178 164 147
-0.182006 0.390456 0.417445 176 162 146
-0.113709 0.623142 0.0363591 46 42 39
0.142352 0.746493 0.186015 118 113 104
-0.102855 0.616804 0.0467127 36 34 30
-0.0699272 0.572695 0.0833321 41 38 34
-0.111069 0.575761 0.0344582 68 66 58
-0.153223 0.594781 0.204264 93 66 68
0.149095 0.75876 0.184638 175 170 160
-0.0924325 0.584257 0.0702547 48 46 42
-0.103524 0.68858 0.0704702 40 38 35
-0.192233 0.618315 0.0688728 196 190 180
-0.140895 0.694637 0.0222468 24 23 22
-0.185042 0.576637 0.0428592 196 185 170
-0.148727 0.588321 0.0258159 102 98 92
0.00711671 0.606663 0.230231 200 173 150
-0.123918 0.675536 0.0530376 44 42 39
-0.129236 0.532281 0.0362754 38 36 34
-0.218166 0.382036 0.291704 174 161 144
-0.109568 0.714293 0.0612623 24 24 23
-0.194345 0.378594 0.309927 184 171 156
-0.0799251 0.642938 0.129785 66 61 51
-0.0749168 0.655497 0.113933 202 195 182
-0.122466 0.579609 0.0202199 53 52 50
0.0278477 0.584758 0.219719 206 178 156
0.0900994 0.685261 0.156415 114 52 20
-0.103698 0.645795 0.0341102 164 148 132
-0.125864 0.702172 0.0355708 30 30 28
-0.127888 0.680088 -0.0103129 18 18 18
-0.0893771 0.604534 0.0672015 50 49 46
0.267875 0.767299 0.548691 179 168 152
-0.213653 0.525319 0.116461 192 180 164
-0.146794 0.265006 0.362614 184 170 154
0.120973 0.746687 0.212785 100 89 81
-0.150946 0.707164 0.0129306 130 125 111
0.0425879 0.590244 0.196833 124 56 19
-0.0770077 0.532413 0.0505469 62 47 46
-0.102469 0.530534 0.0541331 113 72 74
-0.160177 0.69835 0.033423 9 9 9
0.0282039 0.62275 0.191305 103 52 24
-0.135764 0.653358 0.0478795 48 46 42
0.0414776 0.625508 0.187605 102 53 20
-0.110305 0.537591 0.0608406 41 36 32
-0.0911617 0.502478 0.042482 89 82 73
0.00619166 0.659057 0.17811 222 202 181
-0.117454 0.709289 0.0456932 26 24 24
-0.128938 0.701047 0.0250866 10 8 9
-0.0587038 0.727558 0.191081 196 186 170
-0.135864 0.656309 0.0386174 46 45 41
-0.104088 0.603331 0.0620556 42 41 36
0.271174 0.26026 0.621703 160 146 132
0.343893 0.151733 0.636629 181 165 150
0.0968581 0.227681 0.550165 166 150 134
0.0572222 0.741614 0.130389 10 8 8
-0.155587 0.226805 0.453811 183 167 152
-0.162435 0.183361 0.464972 172 156 140
-0.356807 0.355364 0.375595 174 158 142
-0.186953 0.24554 0.465234 182 166 150
-0.304077 0.177649 0.39797 175 159 144
-0.217652 0.385736 0.435345 172 156 140
-0.131682 0.546895 0.0293827 40 38 34
-0.0343153 0.132757 0.51195 182 166 150
0.0996718 0.206231 0.551589 178 162 147
-0.0336744 0.635207 0.168209 218 208 190
-0.1599 0.702837 0.0388596 23 22 22
0.0496863 0.190804 0.523606 186 170 156
0.0923968 0.612064 0.175342 72 28 8
-0.181761 0.631555 0.0922455 138 132 118
0.0243783 0.593882 0.225498 78 26 6
-0.11261 0.709406 0.0488258 18 18 16
-0.0751309 0.5878 0.0844165 48 45 40
0.129069 0.746274 0.200072 114 106 98
-0.123934 0.678014 0.0566962 40 39 35
0.0506236 0.574691 0.193506 193 179 160
-0.00476946 0.726472 0.0648146 205 196 181
0.0412626 0.657936 0.142842 144 116 84
-0.128864 0.700487 0.0244547 18 16 17
-0.146309 0.699024 0.0161849 27 26 26
-0.225514 0.38403 0.394997 172 156 140
-0.127396 0.708152 0.0364012 15 14 13
-0.188176 0.697302 0.115719 130 123 118
0.00570568 0.612509 0.234426 214 186 163
-0.0988843 0.627387 0.0587788 49 46 41
-0.0846329 0.51962 0.0450573 138 81 88
-0.291096 0.256494 0.401839 177 161 146
-0.0743082 0.587064 0.0736392 48 45 40
-0.0661725 0.637542 0.127963 145 136 122
-0.125475 0.678891 0.0451644 42 42 38
-0.0150536 0.573755 0.183645 197 182 161
0.0255893 0.730778 0.154566 56 54 52
-0.0856746 0.49977 0.0638842 194 181 162
-0.13302 0.640407 0.0543157 30 29 26
-0.169566 0.700598 0.10077 20 20 18
0.108368 0.677602 0.182261 84 38 16
-0.0818295 0.626568 0.117446 96 94 87
0.120347 0.656813 0.172775 184 156 131
-0.158626 0.653336 0.0672836 104 100 94
-0.10452 0.693856 0.0952871 20 19 16
0.122256 0.675081 0.187711 188 174 156
0.0351822 0.679414 0.180974 101 74 45
-0.165815 0.683125 0.0388318 44 44 44
0.026087 0.726792 0.176513 24 22 19
-0.187061 0.570377 0.0590337 145 138 126
-0.167947 0.688424 0.0579257 14 14 14
-0.161009 0.50153 0.137697 153 146 130
0.113909 0.597148 0.147709 184 148 116
-0.155758 0.684787 0.0372801 30 30 32
0.114721 0.644786 0.165944 107 47 17
-0.0881866 0.649438 0.128404 97 92 84
0.0749947 0.661777 0.214556 122 61 24
-0.17971 0.711563 0.0705074 23 22 21
-0.101549 0.678878 0.0812034 44 42 39
0.0985123 0.670557 0.26133 86 34 5
0.0488936 0.603734 0.257941 156 99 51
-0.147698 0.597064 0.0210748 100 98 90
-0.141909 0.632159 0.0351505 66 64 58
-0.164343 0.522313 0.0812886 56 54 48
0.0335746 0.655867 0.236433 91 38 8
-0.150784 0.606164 0.0429248 70 66 61
-0.183111 0.639813 0.110299 55 52 46
-0.0995465 0.716628 0.0688426 22 22 19
-0.151771 0.611328 0.052142 79 76 70
0.042865 0.580629 0.188997 170 136 107
-0.0815138 0.548516 0.110089 37 32 30
-0.164312 0.496505 0.126089 192 180 164
-0.12188 0.517586 0.0965532 96 97 90
-0.0956418 0.555879 0.0617084 147 94 102
-0.00694631 0.588409 0.146645 202 189 168
0.0255826 0.699273 0.269371 16 13 10
-0.0910729 0.700786 0.032102 34 33 32
0.1018 0.850315 0.487724 85 38 12
-0.0785477 0.637575 0.116306 66 60 51
-0.0952412 0.626144 0.0620865 51 49 44
-0.121944 0.540617 0.0749014 40 36 34
0.0686205 0.671604 0.171905 98 41 8
-0.122735 0.556329 -0.072001 96 92 84
-0.105664 0.705062 0.121721 35 34 30
-0.145619 0.648447 0.0238605 106 104 95
0.107852 0.659981 0.168165 108 56 32
-0.17944 0.688259 0.0559541 34 33 30
-0.117466 0.544898 -0.0975179 158 154 144
-0.137231 0.491178 0.0531085 128 120 109
-0.137863 0.5969 0.00452237 78 76 70
-0.0964444 0.706191 0.117416 54 48 42
-0.142687 0.515945 0.0442193 58 56 50
-0.123731 0.560887 -0.0683775 74 71 63
0.0826541 0.612964 0.14328 81 30 6
-0.117209 0.522688 -0.1332 16 16 18
-0.130163 0.525682 -0.0706074 82 78 66
-0.136789 0.543496 -0.033391 60 130 84
-0.122856 0.637478 0.0237208 18 16 14
0.0416319 0.747577 0.177181 22 20 19
-0.152808 0.522466 0.0520331 88 87 80
-0.100447 0.639373 0.18883 50 48 43
-0.125288 0.515027 0.0474809 62 60 54
-0.0790045 0.521111 -0.011124 146 92 100
0.067351 0.649423 0.0953123 59 18 6
0.0201082 0.700026 0.205266 199 183 170
-0.0998052 0.524416 0.0100028 43 38 36
-0.0979947 0.474593 -0.113952 89 88 79
0.0852059 0.724092 0.125984 32 29 26
0.113767 0.660901 0.167358 170 130 108
-0.158315 0.501054 0.131243 166 158 140
-0.142285 0.50118 0.132867 180 170 154
0.105673 0.660374 0.155532 107 64 42
0.129001 0.747948 0.171223 36 34 30
0.0885321 0.742444 0.146307 23 22 20
-0.077202 0.712558 0.10095 87 76 70
-0.0954675 0.714683 0.0538855 28 28 26
0.0438302 0.65308 0.131465 94 56 29
-0.101446 0.717668 0.0723208 22 20 22
0.103939 0.598132 0.172799 208 180 158
-0.121219 0.705903 0.0482594 22 22 20
-0.112316 0.711943 0.0481213 14 14 10
-0.283625 0.523419 0.429518 178 162 147
0.102353 0.633472 0.134526 106 46 16
-0.0858432 0.699669 0.0728655 32 30 27
0.0108974 0.601557 0.23955 204 166 140
0.0228922 0.595865 0.249102 216 184 154
0.0369834 0.741979 0.253554 54 42 29
-0.181033 0.660533 0.106485 42 39 35
-0.116165 0.562047 0.0648983 46 42 38
0.107714 0.630914 0.133362 100 44 16
-0.094415 0.696443 0.0813928 2 2 2
0.130326 0.656033 0.197156 94 38 8
0.00671472 0.628736 0.181104 176 168 154
0.0411878 0.667059 0.150168 98 74 44
0.0539073 0.735692 0.140476 14 10 12
0.0226249 0.686893 0.197675 62 6 2
-0.0872304 0.714475 0.117783 67 58 51
0.0667975 0.723615 0.168759 100 51 24
0.0222704 0.654109 0.152381 19 16 15
-0.185952 0.579304 0.051736 170 160 143
-0.131367 0.530218 0.0236346 42 38 34
0.0112977 0.647593 0.162897 132 109 84
-0.0266406 0.645147 0.0924799 212 200 184
-0.0357013 0.42787 0.460319 182 166 150
0.00466054 0.654648 0.182191 230 214 195
0.0343851 0.65653 0.154769 136 112 78
-0.116704 0.675925 0.0556648 42 41 37
-0.0661867 0.600139 0.0903383 109 102 90
0.0516758 0.676552 0.154077 71 30 10
0.026088 0.630163 0.221218 99 48 18
-0.162508 0.694904 0.0365086 18 16 17
-0.0970761 0.581439 0.0364096 50 48 42
-0.19017 0.706531 0.115101 32 30 28
0.0435593 0.638745 0.146144 20 16 12
-0.153795 0.666988 0.0574608 32 30 27
-0.101061 0.707342 0.0658363 8 7 5
-0.132209 0.570898 0.0277133 52 52 46
-0.142398 0.561063 0.037553 38 37 32
-0.164703 0.684358 0.0964568 24 22 20
-0.184713 0.640788 0.128 69 67 60
-0.106452 0.707081 0.0567995 8 8 8
-0.446797 0.794365 0.593729 225 217 200
0.0927418 0.635146 0.34401 136 76 48
-0.229595 0.652885 0.151631 223 214 200
-0.134739 0.630595 0.0564775 38 38 34
0.0278918 0.612538 0.143598 100 50 16
0.0255744 0.714989 0.193169 20 7 1
0.0110969 0.679273 0.192443 58 14 12
-0.108551 0.622466 0.0745643 4 2 2
-0.133277 0.619498 0.0349696 40 38 34
-0.168485 0.601322 0.0435108 111 106 97
-0.162551 0.69109 0.0602586 5 5 5
0.114371 0.746903 0.163074 36 32 28
-0.182667 0.695952 0.0586357 28 26 26
-0.178467 0.526039 0.0234811 202 189 178
-0.121495 0.613858 0.0416208 21 19 20
-0.131112 0.629602 0.0491143 32 30 30
-0.182113 0.548213 0.0278152 54 92 63
-0.202876 0.618507 0.0539053 138 135 123
-0.096559 0.592849 0.0598081 54 52 48
-0.111062 0.628076 0.0451435 52 50 44
-0.133949 0.601108 0.049918 65 64 57
0.0397826 0.734269 0.155424 18 18 18
0.0716621 0.692087 0.154557 65 33 12
-0.0803222 0.600253 0.072408 54 52 47
-0.0968267 0.593551 0.0524117 52 50 46
-0.13511 0.702736 0.0384235 20 20 20
0.0759255 0.722633 0.164846 66 30 11
0.0088395 0.321674 0.41345 180 166 150
0.0269813 0.736544 0.197428 28 24 20
-0.167613 0.608688 0.0566257 95 91 82
-0.173986 0.595067 0.0270635 200 190 172
-0.100741 0.676746 0.0598939 81 76 70
-0.158231 0.68103 0.0822646 11 6 2
-0.099916 0.682872 0.0819344 58 51 44
-0.0793807 0.623781 0.103188 157 153 146
-0.0973876 0.709419 0.12379 98 88 82
-0.168639 0.644305 0.116984 88 84 78
0.0121759 0.66315 0.16841 164 124 112
-0.168395 0.66835 0.101749 98 94 88
0.572261 0.880711 0.742942 139 126 110
-0.0788312 0.546442 0.0451255 77 52 52
0.10183 0.594239 0.159794 225 190 167
-0.130735 0.635126 0.0448159 33 32 30
0.0843398 0.632241 0.142396 255 244 218
-0.192988 0.589776 0.0607784 26 22 18
-0.165843 0.691825 0.0571497 10 10 8
-0.0799252 0.625333 0.0830614 76 74 66
0.499979 0.892809 0.80812 142 128 112
-0.169271 0.638371 0.112178 95 92 85
-0.180555 0.587203 0.0361776 30 28 28
0.109057 0.597028 0.15621 194 154 126
-0.165916 0.654311 0.069169 98 95 89
-0.146617 0.54471 0.0318075 48 39 20
-0.183343 0.527964 0.105429 116 108 95
-0.179844 0.633353 0.0989054 52 48 42
0.0344458 0.595736 0.257284 214 188 164
-0.0650809 0.717934 0.0890792 114 109 102
0.00482053 0.620107 0.225805 199 168 146
-0.201428 0.696067 0.0889113 39 36 34
-0.0925731 0.619246 0.0438044 52 48 44
-0.142238 0.64428 0.0339034 60 58 54
0.0555802 0.633428 0.149374 95 40 10
-0.179809 0.661897 0.176695 100 97 86
-0.0806278 0.572086 -0.0495317 58 56 52
-0.0662782 0.601292 0.0956221 139 131 121
-0.132556 0.616702 -0.0158653 50 49 44
-0.134328 0.698215 0.028889 44 44 44
-0.0803027 0.568415 -0.0456269 75 73 68
0.0935794 0.61126 0.0710175 173 143 122
0.0194355 0.70201 0.250638 64 18 18
-0.0691397 0.602651 0.109439 42 40 35
0.0867526 0.703186 0.157332 68 32 10
-0.12656 0.490699 0.0498899 176 167 156
-0.0805465 0.658026 0.129396 64 62 55
-0.165978 0.650198 0.0628575 78 76 68
0.0720746 0.640008 0.14442 96 45 18
-0.163722 0.700795 0.039619 21 20 20
0.0263411 0.649179 0.169243 135 114 80
-0.223618 0.785243 0.222724 36 34 32
0.0075433 0.627755 0.210226 180 154 134
-0.145393 0.54665 0.0272354 100 88 47
-0.10514 0.606086 0.0605771 32 30 28
0.00314231 0.615519 0.217378 188 160 136
-0.142803 0.708341 0.0378807 16 15 16
-0.155837 0.52797 0.0333939 6 4 5
-0.146303 0.707289 0.0329233 10 10 10
-0.156333 0.588555 0.0310419 84 80 72
0.00731704 0.628057 0.223697 166 136 118
-0.161346 0.574822 0.0218975 35 36 30
-0.108844 0.54921 0.0587066 42 36 34
-0.111275 0.619181 0.0321746 46 42 38
0.0405602 0.71965 0.18872 47 16 8
-0.118157 0.619903 0.0353772 52 50 44
0.112703 0.697439 0.208618 88 60 30
-0.150017 0.698627 0.0185077 28 27 26
-0.146289 0.523374 0.0470382 52 50 43
0.0874282 0.741218 0.144856 25 24 22
-0.0947277 0.627235 0.0544613 51 49 44
-0.0344695 0.600946 0.149991 166 146 118
0.109561 0.622963 0.129395 94 34 6
-0.0831444 0.506761 0.0508031 47 44 42
0.0298337 0.590967 0.203542 74 20 4
-0.17625 0.5206 0.0740606 183 174 161
0.0894671 0.618627 0.162512 73 31 12
0.0872636 0.730316 0.144432 8 6 5
-0.129445 0.686522 0.0027741 28 27 28
-0.0949844 0.631374 0.0563314 48 46 43
-0.0727824 0.590973 0.0583881 48 46 42
-0.151754 0.519714 0.057632 47 44 38
0.145311 0.70616 0.279155 174 140 121
-0.0814814 0.645781 0.0861176 109 104 96
0.149339 0.73086 0.400249 159 110 80
-0.170753 0.60086 0.0436669 141 130 114
0.144139 0.751983 0.319686 152 104 70
-0.104006 0.596714 0.0525301 43 40 35
-0.175913 0.528479 0.0362503 156 151 138
-0.180892 0.558847 0.0258918 122 120 108
-0.0766624 0.572191 0.0122903 50 48 42
0.0725485 0.653288 0.39767 100 43 17
0.150656 0.704538 0.307297 109 51 18
-0.158977 0.50839 0.065581 144 132 121
0.139494 0.700168 0.258871 146 116 99
-0.0886311 0.475654 0.378067 180 164 148
-0.0748199 0.532408 0.0915379 146 134 120
-0.163873 0.538679 0.0421789 54 52 46
-0.133675 0.626779 0.0475249 36 36 34
0.146109 0.733459 0.228979 209 200 184
0.0494216 0.636304 0.157273 56 22 6
-0.018528 0.658054 0.489112 197 182 161
0.00652802 0.598212 0.215746 216 186 160
-0.0975215 0.57916 0.0442363 48 46 38
-0.163961 0.66591 0.0714652 140 135 124
-0.12703 0.492382 0.0611516 175 168 154
-0.0816836 0.644585 0.100177 51 48 41
-0.165872 0.697171 0.0744014 22 20 21
-0.100459 0.700229 0.0956973 43 39 36
-0.146799 0.557101 -0.00510935 123 128 75
-0.165505 0.703172 0.0551321 20 20 20
-0.122111 0.615855 0.0457933 22 20 22
-0.130434 0.509957 0.0331805 88 87 80
-0.0338052 0.586128 0.155923 209 178 145
-0.189269 0.68436 0.0667854 36 35 33
-0.188865 0.632511 0.0462008 71 68 63
-0.159579 0.540756 0.0523108 32 30 28
-0.145763 0.692455 0.0422776 10 10 10
0.0584206 0.728707 0.107233 23 22 21
-0.173787 0.591964 0.0375529 162 146 128
0.253688 0.689114 0.208196 212 204 188
-0.174878 0.595036 0.0350252 182 166 146
-0.135826 0.637504 0.0271829 50 50 46
-0.115514 0.574943 0.0254557 75 73 68
0.038469 0.611052 0.134116 100 52 22
-0.137967 0.646477 0.0423361 50 50 46
-0.134631 0.624964 0.0570013 36 34 32
0.0669779 0.570535 0.146147 196 186 166
-0.0572838 0.535809 0.0771477 198 185 164
-0.0902757 0.584385 0.0571565 66 64 60
-0.162423 0.5529 0.0129731 54 53 44
-0.170825 0.549662 0.0259578 73 69 62
0.00591782 0.605869 0.224201 187 158 128
-0.1334 0.552547 0.0269545 48 46 41
-0.143793 0.693596 0.0558434 5 5 5
0.125195 1.4502 0.752304 218 207 192
0.00811163 0.606537 0.238062 182 154 128
-0.161324 0.637482 0.0954342 101 98 91
-0.139331 0.64665 0.0393684 51 50 46
-0.125913 0.673089 0.061083 46 45 41
-0.14598 0.630922 0.0379517 62 60 54
0.0171951 0.59878 0.247375 200 168 143
-0.165257 0.672498 0.0806015 130 126 117
-0.0877229 0.627921 0.0572746 53 51 48
-0.132905 0.570627 0.0242458 52 51 48
-0.0825409 0.505659 0.0483498 48 48 44
-0.105204 0.705066 0.0670447 10 10 12
-0.120741 0.511269 0.0758586 2 2 1
0.148209 0.753868 0.183206 44 39 32
-0.115584 0.573824 0.024469 78 77 70
-0.181246 0.522791 0.0829328 186 178 164
-0.00301627 0.73078 0.0725501 207 200 186
-0.126747 0.697188 0.0508526 25 24 18
-0.140908 0.503825 0.0746018 69 66 59
0.120146 0.758332 0.161071 189 183 170
-0.162191 0.546071 0.0730908 9 8 7
-0.152774 0.528912 0.0415645 10 8 8
-0.11999 0.497204 0.0774759 161 154 142
-0.179708 0.687344 0.0745357 31 31 29
-0.13743 0.703213 0.0558386 12 12 11
-0.145534 0.5479 0.0328903 74 67 34
-0.17017 0.624293 0.0541883 49 48 45
0.075388 0.745375 0.145768 8 8 8
-0.157493 0.526334 0.0305832 37 36 34
-0.146442 0.701611 0.027595 14 14 14
-0.000841218 0.583682 0.168557 199 171 145
-0.0809818 0.634091 0.0986315 53 52 47
-0.142178 0.508347 0.026795 86 84 77
-0.133465 0.605357 0.0613588 56 55 50
0.0191185 0.613144 0.181275 104 52 20
-0.183383 0.560578 0.0612891 68 73 61
0.0460925 0.628794 0.141848 46 14 4
-0.136158 0.702061 0.0361423 22 22 22
0.10108 0.728028 0.191252 100 56 28
-0.161992 0.700026 0.0421422 23 23 23
-0.193149 0.56703 0.0717146 82 81 76
-0.136034 0.584389 0.033077 40 38 34
-0.150073 0.697905 0.0160775 26 26 26
-0.19487 0.564851 0.0747043 170 170 157
-0.0916054 0.498807 0.0306852 116 108 96
0.409863 0.677472 0.834627 186 172 158
-0.144536 0.563087 0.0400442 40 39 36
-0.110734 0.66116 0.0494203 148 138 124
-0.141253 0.51681 0.0422429 73 72 67
-0.0907952 0.583256 0.0552765 65 64 59
-0.156353 0.701241 0.0425654 7 7 7
-0.0841073 0.567279 0.0612856 38 24 22
0.0479007 0.584301 0.161983 110 52 19
-0.0823184 0.576412 0.0545012 51 50 45
-0.170062 0.551122 0.0289333 72 93 74
-0.167306 0.712233 0.0939643 17 15 16
-0.170003 0.526935 0.0390129 166 159 150
-0.164562 0.631689 0.0775979 86 84 78
-0.18332 0.68148 0.0638508 40 40 40
-0.102291 0.708569 0.047103 16 16 16
-0.126935 0.638806 0.0515264 36 33 31
-0.0821137 0.645065 0.124282 92 89 78
-0.164753 0.599785 0.0359874 188 184 172
0.00350909 0.669295 0.179525 124 81 42
-0.173856 0.681111 0.066172 23 22 21
0.0635425 0.634281 0.206861 88 30 2
0.01385 0.607249 0.16447 128 68 32
-0.167874 0.624847 0.0690153 72 69 65
-0.115761 0.570242 0.089924 48 44 42
-0.0749086 0.498723 0.00655386 54 53 51
-0.102367 0.66697 0.0551657 54 48 40
0.00797875 0.589645 0.186309 180 146 120
-0.120528 0.526153 0.0431603 10 8 7
-0.0780328 0.509007 0.0430979 169 152 145
0.12828 0.748724 0.186746 52 46 42
-0.0980491 0.503591 0.058624 161 153 138
-0.131548 0.701589 0.0308376 18 18 18
0.0540259 0.715354 0.156566 60 24 4
0.0306105 0.724832 0.120954 38 36 36
-0.166877 0.5673 0.0431041 117 124 108
-0.132161 0.551878 0.0184598 48 48 42
0.101984 0.598448 0.233087 199 188 171
-0.167709 0.696795 0.0654319 12 12 12
-0.0989734 0.517082 0.0473909 160 104 116
-0.12931 0.585659 0.0274844 57 56 51
-0.271006 0.376197 0.386923 185 172 156
-0.253621 0.380806 0.412119 180 168 152
-0.224111 0.383691 0.411064 184 172 156
-0.128601 0.509945 0.0555159 59 58 52
-0.093235 0.553581 0.0365754 155 102 110
-0.161164 0.528082 0.0789876 90 90 82
0.0569472 0.688828 0.168213 80 36 14
-0.128209 0.557994 0.0303117 44 44 40
-0.195465 0.59121 0.114413 134 132 122
-0.104994 0.601161 0.0444409 22 22 20
0.0768575 0.747717 0.156945 10 9 8
-0.115201 0.56191 0.0652592 47 44 43
-0.181848 0.66407 0.0463217 170 169 160
-0.177014 0.668337 0.0265961 17 16 16
-0.162633 0.655064 0.0719848 108 104 100
-0.318345 0.602567 0.107231 196 186 172
-0.0295168 0.353509 0.395841 187 176 158
-0.119482 0.562538 0.035737 49 48 45
-0.0800844 0.509439 0.0397229 86 66 68
0.16219 0.789989 0.35209 218 210 198
0.0649897 0.56485 0.139341 200 192 172
-0.175932 0.63431 0.104126 88 87 83
-0.152073 0.502307 0.0389571 164 157 146
-0.129235 0.500292 0.100702 172 164 152
-0.119474 0.629099 0.0627414 48 46 44
-0.199303 0.384183 0.244419 182 174 158
0.275951 -0.0856824 0.355559 188 176 159
-0.0938686 0.0164882 0.321761 203 192 174
-0.207898 0.559766 0.0783829 205 195 183
